<svg width="29" height="28" viewBox="0 0 29 28" fill="none" xmlns="http://www.w3.org/2000/svg">
<path d="M29.6655 15.5617C29.7725 17.3693 29.4351 19.1263 28.8029 20.8245C28.6191 21.3187 28.7343 21.6675 29.1207 21.8194M29.6655 15.5617L20.7026 28.6375L20.7204 28.631C20.7807 28.6088 20.8446 28.5855 20.91 28.5642L20.9108 28.5639C21.3738 28.4152 21.8409 28.5923 22.0159 29.0428C22.1955 29.5036 21.9646 29.9772 21.4871 30.1628C20.5361 30.5332 19.5544 30.8126 18.5431 30.9735C14.8915 31.5562 11.4278 30.9776 8.25075 29.0553L8.35429 28.8842L8.25074 29.0553C4.23764 26.627 1.81563 23.0647 0.995371 18.4368C0.946076 18.1602 0.911212 17.8824 0.879282 17.609L0.879235 17.6086C0.817851 17.0735 0.797043 16.5373 0.800332 16.1751C0.7933 9.75025 4.64065 4.10801 10.4546 1.8485L10.4546 1.84849C18.3164 -1.20634 27.0859 2.6336 30.1533 10.5113C31.5539 14.1073 31.5265 17.7402 30.2054 21.3579L30.2054 21.358C30.107 21.6272 29.9542 21.8423 29.7475 21.9641C29.5344 22.0896 29.2891 22.1007 29.0475 22.0056C29.0474 22.0055 29.0474 22.0055 29.0473 22.0055L29.1207 21.8194M29.6655 15.5617C29.3412 10.0611 26.6938 6.05782 21.7691 3.59588L29.6655 15.5617ZM29.1207 21.8194C29.5021 21.9697 29.8411 21.7721 30.0175 21.2893L29.1207 21.8194ZM12.9211 29.1302C7.39682 27.8839 3.10665 23.0268 2.5668 17.383L20.7023 28.6376C18.1557 29.5645 15.567 29.7271 12.9211 29.1302Z" fill="#9A9C95" stroke="#9A9C95" stroke-width="0.4"/>
<path d="M15.9087 24.2722L15.8981 24.2718C15.4821 24.2557 14.9559 24.2131 14.4341 24.1196L14.4341 24.1196C9.94432 23.3155 6.90277 18.7453 7.89118 14.2775L7.89119 14.2775C9.08039 8.89973 14.951 6.11455 19.8104 8.66978C22.4853 10.0771 23.9545 12.3521 24.232 15.3806C24.3601 16.7806 24.1029 18.1226 23.5242 19.4103L23.5242 19.4104C23.4067 19.6723 23.3673 19.934 23.4303 20.1662C23.4951 20.4049 23.6615 20.5863 23.9 20.6882C23.9 20.6882 23.9001 20.6882 23.9001 20.6883L15.9087 24.2722ZM15.9087 24.2722C17.2177 24.2546 18.357 24.0121 19.4414 23.517C19.6811 23.4075 19.9221 23.3716 20.1407 23.4285C20.3633 23.4865 20.5387 23.6346 20.6503 23.8454L15.9087 24.2722ZM20.1923 25.0446C19.2372 25.4955 18.2314 25.7887 17.1814 25.9031C14.388 26.2077 11.8739 25.4862 9.68128 23.7233L9.8066 23.5674L20.1923 25.0446ZM20.1923 25.0446C20.4333 24.9311 20.6133 24.7538 20.6994 24.535M20.1923 25.0446L20.6994 24.535M20.6994 24.535C20.7863 24.3138 20.7692 24.0698 20.6504 23.8455L20.6994 24.535Z" fill="#9A9C95" stroke="#9A9C95" stroke-width="0.4"/>
<path d="M21.6574 24.9912V24.9904H21.8462L21.6579 24.9766C21.669 24.8253 21.6607 24.6664 21.6514 24.4869C21.6472 24.4046 21.6427 24.3179 21.6397 24.2257C21.6307 23.9457 21.6383 23.6348 21.7353 23.3282L21.7354 23.328C21.7845 23.1736 21.7761 23.0832 21.7498 23.0141C21.7199 22.9354 21.6567 22.8557 21.5384 22.7381L21.6793 22.5962L21.5385 22.7383C19.9563 21.1696 18.3817 19.5933 16.8074 18.0173C16.3876 17.5971 15.9679 17.1768 15.548 16.7568L21.6574 24.9912ZM21.6574 24.9912V24.9935V24.9965V24.9996V25.0027V25.0058V25.0089V25.0119V25.015V25.0181V25.0211V25.0242V25.0273V25.0303V25.0334V25.0364V25.0395V25.0425V25.0456V25.0486V25.0517V25.0547V25.0578V25.0608V25.0638V25.0669V25.0699V25.0729V25.0759V25.079V25.082V25.085V25.088V25.091V25.0941V25.0971V25.1001V25.1031V25.1061V25.1091V25.1121V25.1151V25.1181V25.1211V25.1241V25.1271V25.1301V25.133V25.136V25.139V25.142V25.145V25.148V25.1509V25.1539V25.1569V25.1598V25.1628V25.1658V25.1687V25.1717V25.1746V25.1776V25.1806V25.1835V25.1865V25.1894V25.1924V25.1953V25.1982V25.2012V25.2041V25.2071V25.21V25.2129V25.2159V25.2188V25.2217V25.2246V25.2276V25.2305V25.2334V25.2363V25.2392V25.2421V25.2451V25.248V25.2509V25.2538V25.2567V25.2596V25.2625V25.2654V25.2683V25.2712V25.2741V25.277V25.2799V25.2827V25.2856V25.2885V25.2914V25.2943V25.2972V25.3V25.3029V25.3058V25.3086V25.3115V25.3144V25.3172V25.3201V25.323V25.3258V25.3287V25.3316V25.3344V25.3373V25.3401V25.343V25.3458V25.3487V25.3515V25.3543V25.3572V25.36V25.3629V25.3657V25.3685V25.3714V25.3742V25.377V25.3799V25.3827V25.3855V25.3883V25.3912V25.394V25.3968V25.3996V25.4024V25.4052V25.408V25.4109V25.4137V25.4165V25.4193V25.4221V25.4249V25.4277V25.4305V25.4333V25.4361V25.4389V25.4417V25.4444V25.4472V25.45V25.4528V25.4556V25.4584V25.4611V25.4639V25.4667V25.4695V25.4723V25.475V25.4778V25.4806V25.4833V25.4861V25.4889V25.4916V25.4944V25.4972V25.4999V25.5027V25.5054V25.5082V25.5109V25.5137V25.5164V25.5192V25.5219V25.5247V25.5274V25.5302V25.5329V25.5357V25.5384V25.5411V25.5439V25.5466V25.5493V25.5521V25.5548V25.5575V25.5603V25.563V25.5657V25.5684V25.5712V25.5739V25.5766V25.5793V25.582V25.5848V25.5875V25.5902V25.5929V25.5956V25.5983V25.601V25.6037V25.6064V25.6091V25.6118V25.6145V25.6172V25.6199V25.6226V25.6253V25.628V25.6307V25.6334V25.6361V25.6388V25.6415V25.6442V25.6468V25.6495V25.6522V25.6549V25.6576V25.6603V25.6629V25.6656V25.6683V25.671V25.6736V25.6763V25.679V25.6816V25.6843V25.687V25.6896V25.6923V25.695V25.6976V25.7003V25.703V25.7056V25.7083V25.7109V25.7136V25.7162V25.7189V25.7215V25.7242V25.7268V25.7295V25.7321V25.7348V25.7374V25.7401V25.7427V25.7454V25.748V25.7506V25.7533V25.7559V25.7586V25.7612V25.7638V25.7665V25.7691V25.7717V25.7744V25.777V25.7796V25.7822V25.7849V25.7875V25.7901V25.7927V25.7954V25.798V25.8006V25.8032V25.8058V25.8085V25.8111V25.8137V25.8163V25.8189V25.8215V25.8241V25.8268V25.8294V25.832V25.8346V25.8372V25.8398V25.8424V25.845V25.8476V25.8502V25.8528V25.8554V25.858V25.8606V25.8632V25.8658V25.8684V25.871V25.8736V25.8762V25.8788V25.8814V25.884V25.8865V25.8891V25.8917V25.8943V25.8969V25.8995V25.9021V25.9046V25.9072V25.9098V25.9124V25.915V25.9176V25.9201V25.9227V25.9253V25.9279V25.9304V25.933V25.9356V25.9382V25.9407V25.9433V25.9459V25.9485V25.951V25.9536V25.9562V25.9587V25.9613V25.9639V25.9664V25.969V25.9716V25.9741V25.9767V25.9792V25.9818V25.9844V25.9869V25.9895V25.992V25.9946V25.9972V25.9997V26.0023V26.0048V26.0074V26.0099V26.0125V26.015V26.0176V26.0201V26.0227V26.0252V26.0278V26.0303V26.0329V26.0354V26.038V26.0405V26.0431V26.0456V26.0482V26.0507V26.0533V26.0558V26.0583V26.0609V26.0634V26.066V26.0685V26.0711V26.0736V26.0761V26.0787V26.0812V26.0837V26.0863V26.0888V26.0914V26.0939V26.0964V26.099V26.1015V26.104V26.1066V26.1091V26.1116V26.1142V26.1167V26.1192V26.1217V26.1243V26.1268V26.1293V26.1319V26.1344V26.1369V26.1394V26.142V26.1445V26.147V26.1496V26.1521V26.1546V26.1571V26.1597V26.1622V26.1647V26.1672V26.1697V26.1723V26.1748V26.1773V26.1798V26.1824V26.1849V26.1874V26.1899V26.1924V26.195V26.1975V26.2V26.2025V26.205V26.2075V26.2101V26.2126V26.2151V26.2176V26.2201V26.2226V26.2252V26.2277V26.2302V26.2327V26.2352V26.2377V26.2402V26.2428V26.2453V26.2478V26.2503V26.2528V26.2553V26.2578V26.2604V26.2629V26.2654V26.2679V26.2704V26.2729V26.2754V26.2779V26.2804V26.283V26.2855V26.288V26.2905V26.293V26.2955V26.298V26.3005V26.303V26.3055V26.3081V26.3106V26.3131V26.3156V26.3181V26.3206V26.3231V26.3256V26.3281V26.3306V26.3331V26.3357V26.3382V26.3407V26.3432V26.3457V26.3482V26.3507V26.3532V26.3557V26.3582V26.3607V26.3632V26.3658V26.3683V26.3708V26.373V26.3733H21.8574C21.8565 26.9295 22.0526 27.4066 22.4439 27.8011M21.6574 24.9912L22.8532 28.2149C22.7168 28.077 22.5803 27.939 22.4439 27.8011M23.2158 21.9648L23.1316 21.7834C23.3674 21.674 23.6232 21.6603 23.8438 21.6611L23.8431 21.8611M23.2158 21.9648L28.5678 28.5706C28.5679 28.5705 28.5683 28.5701 28.57 28.5692C28.5722 28.5681 28.5774 28.566 28.5872 28.564C28.6088 28.5597 28.641 28.5584 28.6899 28.5618C28.7233 28.5641 28.7548 28.5677 28.7908 28.5718C28.8101 28.5741 28.8307 28.5764 28.8535 28.5788C28.9128 28.585 28.9829 28.5907 29.053 28.5864L29.0533 28.5864C29.5044 28.5577 29.9114 28.4396 30.2511 28.2123C30.5922 27.984 30.8539 27.6532 31.0246 27.2192C31.1908 26.7969 31.2354 26.3803 31.1522 25.9827C31.0691 25.5853 30.8611 25.2204 30.5435 24.8962L30.5434 24.8961C29.8369 24.1754 29.1208 23.4635 28.4055 22.7524C28.2539 22.6016 28.1022 22.4509 27.9507 22.3001L27.9506 22.3C27.5171 21.8692 26.9862 21.6602 26.3791 21.6611H26.379C25.5338 21.6627 24.6886 21.6627 23.8435 21.6611L23.8431 21.8611M23.2158 21.9648C23.4093 21.875 23.6274 21.8603 23.8431 21.8611M23.2158 21.9648L23.8431 21.8611M23.2158 21.9648L23.1319 21.7832C23.0641 21.8145 23.0394 21.8084 23.0306 21.8059C23.013 21.8009 22.9806 21.7838 22.9165 21.7193L22.9165 21.7192C21.182 19.9757 19.4428 18.2375 17.7036 16.4994C17.3966 16.1925 17.0895 15.8856 16.7825 15.5787L16.6411 15.7201L16.7832 15.5794C16.7737 15.5699 16.7641 15.5601 16.7542 15.55C16.6796 15.4742 16.5912 15.3843 16.4906 15.3105L16.4905 15.3104M23.2158 21.9648L16.4905 15.3104M22.4439 27.8011L22.3017 27.9418M22.4439 27.8011L22.3018 27.9419C22.3018 27.9419 22.3017 27.9418 22.3017 27.9418M22.3017 27.9418C22.4381 28.0796 22.5745 28.2176 22.711 28.3555C23.427 29.0795 24.1437 29.8042 24.8661 30.5225M22.3017 27.9418L24.8661 30.5225M24.8661 30.5225C25.1919 30.8466 25.5583 31.0618 25.9588 31.1502C26.3598 31.2387 26.781 31.1968 27.2108 31.0293M24.8661 30.5225L28.5818 29.0614C28.5527 29.5125 28.4341 29.9193 28.2062 30.2585C27.9772 30.5992 27.6457 30.86 27.2108 31.0293M27.2108 31.0293C27.2108 31.0293 27.2108 31.0294 27.2108 31.0294L27.1382 30.843L27.2108 31.0293ZM16.4905 15.3104C16.149 15.0604 15.6898 15.0972 15.3946 15.3891C15.0976 15.682 15.0532 16.1386 15.3004 16.4841M16.4905 15.3104L15.3004 16.4841M29.6304 26.6592C29.5013 26.9777 29.2481 27.0815 28.9222 27.0741L26.9552 23.4286C27.7729 24.2536 28.5946 25.0729 29.4172 25.8922C29.6361 26.1094 29.7553 26.3504 29.6304 26.6592ZM29.6304 26.6592L29.445 26.5841M29.6304 26.6592L29.445 26.5841C29.4907 26.471 29.4886 26.3824 29.4628 26.304C29.435 26.2197 29.3742 26.1313 29.2763 26.0341L29.276 26.0339C28.4535 25.2146 27.6313 24.3949 26.8132 23.5694C26.6667 23.4216 26.5081 23.3573 26.3035 23.3598H26.3034C26.0183 23.3634 25.7326 23.3627 25.4482 23.362C25.3352 23.3618 25.2224 23.3615 25.11 23.3615L29.445 26.5841M29.445 26.5841C29.3959 26.7051 29.3299 26.7725 29.2551 26.8128C29.1759 26.8556 29.0692 26.8774 28.9267 26.8742L28.9265 26.8742C28.5473 26.8659 28.1669 26.8651 27.7869 26.8742L27.7864 26.8742C27.5207 26.8812 27.287 26.9585 27.1186 27.128C26.9503 27.2974 26.8744 27.5317 26.8688 27.7977L26.8688 27.7978C26.8622 28.1177 26.8641 28.4391 26.8659 28.7572C26.8664 28.8363 26.8668 28.9151 26.8671 28.9937L27.0671 28.9929L26.8671 28.9934C26.8675 29.1186 26.8413 29.2108 26.7981 29.2793C26.7557 29.3463 26.6873 29.4059 26.5756 29.4508C26.4716 29.4922 26.3869 29.4938 26.3133 29.4736C26.2366 29.4525 26.1559 29.4034 26.071 29.3182C25.745 28.9906 25.4192 28.6626 25.0933 28.3345C24.5722 27.81 24.051 27.2853 23.5289 26.7621L23.5287 26.762C23.4123 26.6456 23.3578 26.5146 23.3578 26.3569V26.3565C23.3574 26.1769 23.3569 25.9975 23.3563 25.8181C23.3543 25.173 23.3524 24.5291 23.3594 23.8849V23.8849C23.3614 23.6918 23.4158 23.571 23.4914 23.4969C23.5678 23.4218 23.6936 23.3673 23.8922 23.3631C24.1718 23.3575 24.4493 23.3589 24.7299 23.3602C24.8556 23.3609 24.9818 23.3615 25.1092 23.3615L29.445 26.5841ZM15.3004 16.4841C15.3669 16.5775 15.4497 16.6594 15.5177 16.7267C15.5282 16.7371 15.5383 16.7471 15.548 16.7568L15.3004 16.4841ZM28.5675 28.571L28.5678 28.5706L28.5751 28.8622C28.5727 28.8382 28.5704 28.8168 28.5682 28.7968C28.5643 28.7617 28.5609 28.7308 28.5586 28.6977C28.5552 28.6484 28.5563 28.6151 28.5607 28.5924C28.5627 28.5819 28.5649 28.5761 28.5662 28.5733L28.5675 28.571Z" fill="#9A9C95" stroke="#9A9C95" stroke-width="0.4"/>
<path d="M20.7486 16.2163C20.757 16.1359 20.757 16.0555 20.757 15.9874L20.757 15.9832L20.757 15.9827C20.751 13.184 18.3171 10.9825 15.5349 11.2589L15.5349 11.2589C13.4735 11.4641 11.7566 12.9728 11.3361 14.9599C10.8968 17.0354 11.8177 19.1039 13.6475 20.1424L13.6476 20.1425C14.4232 20.5823 15.2618 20.7863 16.1495 20.7565L16.1496 20.7565C16.4495 20.7463 16.7074 20.6292 16.8737 20.4297C17.0413 20.2287 17.1009 19.9611 17.0319 19.6862L17.0319 19.686C16.9797 19.4791 16.8614 19.3128 16.6836 19.2021C16.5103 19.0943 16.2942 19.0473 16.0541 19.0472C14.2977 19.0442 12.9351 17.7195 12.9374 15.7522L12.9369 15.7521C12.9915 14.6836 13.5751 13.7173 14.7768 13.201L14.7768 13.201C15.3761 12.9433 15.9516 12.8672 16.4946 12.9589C17.0379 13.0506 17.5616 13.3125 18.0534 13.7513L18.0535 13.7514C18.7529 14.3745 19.0628 15.1791 19.0419 16.1307L19.0419 16.1309C19.0365 16.3844 19.1116 16.6122 19.2593 16.7813C19.4078 16.9513 19.6184 17.0485 19.8556 17.0578L19.8558 17.0578C20.0953 17.067 20.3116 16.9919 20.4737 16.8357C20.6337 16.6814 20.7246 16.4642 20.7486 16.2163ZM20.7486 16.2163C20.7486 16.2166 20.7486 16.2169 20.7485 16.2172L20.5496 16.1964L20.7487 16.2155C20.7487 16.2158 20.7486 16.216 20.7486 16.2163Z" fill="#9A9C95" stroke="#9A9C95" stroke-width="0.4"/>
</svg>
