<svg width="18" height="18" viewBox="0 0 18 18" fill="none" xmlns="http://www.w3.org/2000/svg">
<circle cx="9" cy="9" r="9" fill="#AFEA0D"/>
<path d="M8.74349 12.3367C9.39279 12.3367 9.90982 12.2098 10.2946 11.956C10.6794 11.6901 10.9439 11.3214 11.0882 10.8501H13C12.9038 11.6961 12.5251 12.4092 11.8637 12.9894C11.2024 13.5695 10.3547 13.914 9.32064 14.0227V15.6H8.1483V14.0227C6.81363 13.9019 5.78557 13.4063 5.06413 12.5361C4.35471 11.6659 4 10.5902 4 9.30906C4 8.02791 4.35471 6.95223 5.06413 6.08201C5.78557 5.19971 6.81363 4.69813 8.1483 4.57727V3H9.32064V4.57727C10.3547 4.68604 11.2024 5.0305 11.8637 5.61065C12.5251 6.19079 12.9038 6.90388 13 7.74993H11.0882C10.9439 7.27856 10.6794 6.91597 10.2946 6.66216C9.90982 6.39626 9.39279 6.26331 8.74349 6.26331C7.88978 6.26331 7.21042 6.53525 6.70541 7.07914C6.2004 7.62302 5.9479 8.36633 5.9479 9.30906C5.9479 10.2518 6.2004 10.9951 6.70541 11.539C7.21042 12.0708 7.88978 12.3367 8.74349 12.3367Z" fill="black"/>
</svg>
