<svg width="36" height="30" viewBox="0 0 36 30" fill="none" xmlns="http://www.w3.org/2000/svg">
<path d="M0.000694735 20.2918V14.1774C0.259831 13.582 0.714188 13.3673 1.35682 13.3958C2.18911 13.4326 3.02349 13.4076 3.85717 13.4028C3.95582 13.4028 4.08227 13.3986 4.14896 13.3409C4.94721 12.6587 5.83578 12.1272 6.82022 11.7375C3.46326 8.82099 4.08643 4.26074 6.34294 2.00146C8.72101 -0.378699 12.4267 -0.677436 15.1084 1.37203C16.409 2.3662 17.2454 3.67578 17.5685 5.28062C18.0103 7.47806 17.4254 9.41777 15.9463 11.1484H20.7518C19.463 9.68246 18.8489 8.01787 19.0003 6.1136C19.1539 4.19127 20.0028 2.61492 21.5173 1.42205C24.1421 -0.646173 27.8665 -0.434973 30.2335 1.90281C31.4548 3.10957 32.1378 4.57963 32.2093 6.29076C32.3087 8.66676 31.3333 10.5662 29.5096 11.9883C30.1418 12.4357 30.7511 12.872 31.3687 13.2965C31.4639 13.3618 31.598 13.3993 31.7147 13.4C32.5484 13.4083 33.3834 13.4319 34.215 13.3944C34.8577 13.3659 35.3106 13.582 35.5712 14.1767V20.2911C35.353 20.76 35.0133 21.0657 34.4568 21.0789V21.4888C34.4568 23.9079 34.4568 26.3276 34.4568 28.7467C34.4568 29.6012 34.0594 30 33.2028 30C22.9249 30 12.647 30 2.36835 30C1.51244 30 1.11436 29.6005 1.11436 28.7467C1.11436 26.3276 1.11436 23.9079 1.11436 21.4888C1.11436 21.3526 1.11436 21.2165 1.11436 21.0678C0.536336 21.0636 0.218842 20.744 0 20.2904L0.000694735 20.2918ZM5.57595 27.8998V27.4795C5.57595 26.1942 5.57595 24.909 5.57664 23.6237C5.57664 23.4855 5.57664 23.3444 5.60096 23.209C5.69753 22.6719 6.17342 22.2898 6.68405 22.3294C7.23498 22.3718 7.64973 22.7935 7.6546 23.3639C7.66641 24.7415 7.65946 26.1199 7.66015 27.4976C7.66015 27.6303 7.66015 27.7623 7.66015 27.8984H16.7438C16.7438 27.7442 16.7438 27.6087 16.7438 27.4732C16.7438 24.9951 16.732 22.5177 16.7473 20.0396C16.7633 17.4642 17.731 15.2931 19.5943 13.5195C19.6638 13.4535 19.7277 13.3805 19.8291 13.2749C19.6819 13.2673 19.5929 13.2583 19.5033 13.2583C16.3541 13.2576 13.2048 13.2506 10.0563 13.2645C9.53872 13.2666 9.01489 13.3243 8.50634 13.4208C7.7331 13.5674 7.01197 13.8648 6.34919 14.3163C7.79632 15.7336 7.87344 17.2947 7.46076 18.4271C6.74658 20.3869 5.24108 21.1637 3.22288 21.0685V27.9005H5.57456L5.57595 27.8998ZM32.3441 27.9012V21.0588C30.5093 21.1616 29.0608 20.5301 28.282 18.8398C27.5039 17.1495 27.9145 15.6231 29.2261 14.3066C27.82 13.4278 26.3173 13.0811 24.7201 13.3187C21.1846 13.8453 18.8294 16.6194 18.828 20.1931C18.8266 22.6358 18.828 25.0778 18.828 27.5205V27.8901H27.9117C27.9117 27.7379 27.9117 27.6129 27.9117 27.4878C27.9124 26.1102 27.9054 24.7325 27.9173 23.3555C27.9221 22.7893 28.3466 22.3656 28.8954 22.3294C29.4102 22.2954 29.8771 22.6761 29.9709 23.2173C29.9945 23.3528 29.9938 23.4938 29.9945 23.6321C29.9959 24.9284 29.9945 26.2248 29.9966 27.5212C29.9966 27.6435 30.0084 27.7657 30.0147 27.9012H32.3441ZM11.1095 2.08761C8.6036 2.07858 6.54649 4.12249 6.5451 6.62215C6.54371 9.10652 8.57373 11.149 11.0671 11.1706C13.5404 11.1921 15.6135 9.14543 15.6288 6.66522C15.6447 4.15514 13.6126 2.09664 11.1095 2.08761ZM25.6267 2.08761C23.1298 2.07789 21.0762 4.09679 21.0574 6.58047C21.038 9.08568 23.0659 11.1477 25.5711 11.1706C28.059 11.1935 30.1355 9.13362 30.1425 6.63674C30.1494 4.15098 28.1111 2.09734 25.6274 2.08761H25.6267ZM33.4654 18.9683V15.4932C32.8339 15.4932 32.2232 15.4752 31.6132 15.4974C30.7309 15.5294 30.0195 16.2845 29.9987 17.1773C29.9771 18.095 30.6496 18.9023 31.5396 18.9607C32.1704 19.0016 32.8068 18.9683 33.4647 18.9683H33.4654ZM2.0981 18.9745C2.72336 18.9745 3.3118 18.9857 3.89955 18.9718C4.72559 18.9516 5.44256 18.3132 5.5558 17.517C5.67946 16.652 5.21191 15.7676 4.38656 15.5988C3.64597 15.4474 2.86509 15.4939 2.09741 15.4529V18.9752L2.0981 18.9745Z" fill="#9A9C95"/>
</svg>
