<svg width="30" height="30" viewBox="0 0 30 30" fill="none" xmlns="http://www.w3.org/2000/svg">
<path d="M24.5932 30H5.38677C5.36252 29.9851 5.33984 29.9601 5.31482 29.9562C3.67642 29.7169 2.30314 28.2349 2.33051 26.2555C2.37431 23.0186 2.34224 19.7809 2.34224 16.544C2.34224 16.4306 2.34224 16.3172 2.34224 16.1835H0C0 14.1541 0 12.1247 0 10.0952C0.0164231 10.0616 0.0414487 10.0288 0.0484872 9.99357C0.422308 8.16827 1.79168 7.05228 3.66 7.0515C4.79241 7.0515 5.92404 7.0515 7.05645 7.0515C7.15968 7.0515 7.26213 7.0515 7.41384 7.0515C6.85624 6.00511 6.6576 4.94231 6.87892 3.82006C7.10259 2.68453 7.64455 1.71165 8.58536 1.043C10.8596 -0.574281 13.0086 -0.245038 15.0162 1.57636C16.6178 -0.13555 18.9022 -0.356089 20.6344 0.542488C21.8091 1.15171 22.5997 2.09721 22.9868 3.361C23.3755 4.63105 23.1995 5.85652 22.5723 7.05072C23.876 7.05072 25.125 7.04915 26.3739 7.05072C28.4448 7.05384 29.9776 8.58666 29.9799 10.6583C29.9823 12.3953 29.9799 14.1322 29.9799 15.8683V16.196H27.6377C27.6377 16.3329 27.6377 16.4478 27.6377 16.5636C27.6377 19.8615 27.6471 23.1594 27.633 26.4573C27.6275 27.8275 27.0066 28.877 25.8147 29.5503C25.4417 29.7607 25.0022 29.8538 24.5924 30H24.5932ZM13.8079 16.1984H4.68449V16.4971C4.68449 19.7849 4.68449 23.0718 4.68449 26.3596C4.68449 27.1893 5.15841 27.6578 5.99598 27.6578C8.50324 27.6578 11.0113 27.6578 13.5185 27.6578C13.6124 27.6578 13.7062 27.6492 13.8071 27.6445V16.1984H13.8079ZM16.1822 16.1976V27.6585H16.5216C18.9898 27.6585 21.4587 27.6585 23.9269 27.6585C24.8426 27.6585 25.2954 27.2096 25.2954 26.2986C25.2954 23.0405 25.2954 19.7825 25.2954 16.5237V16.1968H16.1814L16.1822 16.1976ZM13.8055 9.40234C13.7273 9.39843 13.6703 9.39374 13.6132 9.39374C10.2566 9.39374 6.90082 9.39139 3.54426 9.3953C2.84432 9.3953 2.3485 9.89582 2.34381 10.5973C2.33833 11.6116 2.34146 12.626 2.34381 13.6411C2.34381 13.7052 2.35945 13.7693 2.36805 13.8288H13.8048V9.40312L13.8055 9.40234ZM27.6385 13.828C27.6385 12.7777 27.6385 11.7461 27.6385 10.7138C27.6377 9.85906 27.1724 9.39374 26.3191 9.39296C23.0408 9.39296 19.7632 9.39296 16.4849 9.39296H16.1759V13.828H27.6385ZM16.2072 7.04915C16.9908 7.04915 17.7799 7.06245 18.5682 7.04602C19.7812 7.02178 20.7838 6.03874 20.8417 4.84064C20.9019 3.58701 19.9916 2.51717 18.745 2.37718C17.5539 2.24267 16.373 3.06929 16.2283 4.27522C16.1204 5.17614 16.2072 6.09974 16.2072 7.04915ZM13.8173 7.0077C13.8173 6.22956 13.829 5.44125 13.8149 4.65373C13.7923 3.42669 12.8006 2.41863 11.59 2.37092C10.3458 2.32165 9.29389 3.21945 9.14609 4.45743C9.00297 5.65554 9.83898 6.84191 11.0629 6.98659C11.9552 7.09295 12.8702 7.0077 13.8181 7.0077H13.8173Z" fill="#9A9C95"/>
</svg>
