<svg width="31" height="31" viewBox="0 0 31 31" fill="none" xmlns="http://www.w3.org/2000/svg">
<path d="M30.3771 14.5591L16.8157 1.16383C16.271 0.625364 15.4521 0.625364 14.9074 1.16383L1.344 14.5591C0.749448 15.1467 0.695747 16.1596 1.22125 16.8219C1.74867 17.4843 2.65776 17.5442 3.25231 16.9587L4.83265 15.3989V26.2557C4.83265 28.7386 6.64699 30.76 8.87559 30.76H22.8456C25.0742 30.76 26.8885 28.7386 26.8885 26.2557V15.3989L28.4688 16.9587C28.7431 17.2301 29.0826 17.3625 29.422 17.3625C29.819 17.3625 30.2141 17.1809 30.498 16.8241C31.0254 16.1617 30.9698 15.1489 30.3752 14.5613L30.3771 14.5591ZM24.0116 26.2536C24.0116 26.9694 23.4881 27.5527 22.8456 27.5527H8.87559C8.23309 27.5527 7.7095 26.9694 7.7095 26.2536V12.557L15.8606 4.50357L24.0116 12.5549V26.2557V26.2536Z" fill="#AFEA0D"/>
</svg>
