<svg width="195" height="174" viewBox="0 0 195 174" fill="none" xmlns="http://www.w3.org/2000/svg">
<circle cx="103" cy="104" r="69.25" stroke="#AFEA0D" stroke-width="1.5"/>
<g clip-path="url(#clip0_73_43)">
<path d="M66.9996 84.0866C66.9411 80.6748 68.8395 78.259 72.1593 77.6799C79.4287 76.4112 86.7049 75.192 93.981 73.9616C101.637 72.6658 109.296 71.3881 116.95 70.0945C119.926 69.592 122.517 71.1064 123.632 74.0607C124.318 75.8771 124.422 77.8196 124.773 79.7058C125.099 81.4613 125.375 83.2281 125.654 84.9926C125.731 85.4703 125.917 85.7159 126.426 85.8737C128.52 86.5227 130.582 87.2686 132.672 87.9266C133.293 88.1227 133.556 88.4833 133.657 89.085C135.425 99.6562 137.199 110.227 138.974 120.799C139.298 122.723 139.64 124.646 139.946 126.572C140.105 127.582 139.937 127.814 138.963 127.978C131.257 129.292 123.549 130.602 115.841 131.906C108.837 133.092 101.831 134.27 94.8245 135.453C89.874 136.289 84.9257 137.13 79.9775 137.971C79.2218 138.099 78.8709 137.766 78.7472 137.022C77.8385 131.573 76.9051 126.128 75.9874 120.682C74.8043 113.662 73.6393 106.64 72.4314 99.6247C72.3032 98.8743 72.4404 98.3897 73.0612 97.9323C74.7639 96.6771 76.4125 95.3475 78.1152 94.0945C78.5875 93.7475 78.7292 93.3937 78.6032 92.8528C78.4863 92.3458 78.3401 91.8275 78.3333 91.3137C78.3221 90.5588 77.96 90.561 77.3819 90.6805C76.3068 90.9013 75.2249 91.0883 74.1386 91.2416C70.8525 91.7036 68.0837 89.6326 67.256 86.1283C67.0963 85.4568 67.0356 84.774 66.9996 84.0866ZM114.048 105.547C117.746 102.016 121.437 98.4776 125.148 94.9599C125.474 94.6489 125.531 94.374 125.461 93.9526C124.444 87.965 123.473 81.9683 122.429 75.9852C121.878 72.8258 119.82 71.3272 116.84 71.8185C112.861 72.4743 108.889 73.1638 104.912 73.8354C96.8802 75.1943 88.8461 76.5509 80.8142 77.912C79.2645 78.1734 77.7171 78.4483 76.0167 78.7436C77.6833 80.0866 78.4368 81.761 78.7584 83.6517C79.7593 89.5312 80.749 95.4106 81.7206 101.297C81.7971 101.759 81.95 102.009 82.3841 102.205C87.0265 104.307 91.6576 106.43 96.2909 108.549C96.0705 109.074 95.8501 109.599 95.6297 110.122C88.5582 106.886 81.489 103.652 74.4152 100.416C74.287 100.695 74.3747 100.905 74.4107 101.117C75.3217 106.536 76.2303 111.954 77.1458 117.373C78.1714 123.442 79.2083 129.509 80.2137 135.58C80.2969 136.089 80.4228 136.175 80.9289 136.087C85.0359 135.375 89.152 134.707 93.2613 134.011C102.238 132.492 111.214 130.967 120.191 129.443C125.976 128.463 131.761 127.469 137.552 126.518C138.131 126.424 138.203 126.207 138.113 125.723C137.921 124.697 137.759 123.665 137.586 122.635C136.061 113.587 134.539 104.537 133.011 95.4895C132.741 93.8872 132.46 92.2872 132.168 90.6016C126.446 96.0731 120.825 101.448 115.207 106.822L114.055 105.547H114.048ZM68.7 83.992C68.6888 85.0579 68.9114 86.0675 69.3703 87.0252C70.3194 89.0016 71.9816 89.8669 74.1498 89.5086C75.2047 89.3351 76.2573 89.13 77.3167 88.9903C77.7778 88.9295 77.9127 88.7988 77.8228 88.3188C77.5101 86.6444 77.2695 84.9543 76.9456 83.2821C76.7611 82.3289 76.3315 81.4636 75.677 80.7266C74.4827 79.3858 72.5844 78.9712 71.0302 79.7644C69.314 80.641 68.7135 82.1621 68.6978 83.9897L68.7 83.992ZM126.095 87.5458C126.423 89.4816 126.72 91.2281 127.055 93.2089C128.383 91.6923 129.577 90.3266 130.683 89.0624C129.41 88.6433 127.813 88.1159 126.095 87.5481V87.5458ZM79.9752 101.087C79.6536 99.183 79.3522 97.4005 79.0306 95.5052C77.5821 96.623 76.2393 97.6574 74.8291 98.7458C76.6082 99.5548 78.2389 100.296 79.9752 101.087Z" fill="#AFEA0D"/>
<path d="M96.2913 108.546C99.1163 105.7 101.786 105.443 104.98 107.751C105.374 108.035 105.457 107.861 105.634 107.571C106.676 105.878 108.196 104.903 110.149 104.583C111.588 104.346 112.845 104.83 114.051 105.545C114.436 105.971 114.818 106.394 115.203 106.82C117.362 110.98 115.929 114.527 113.304 117.854C111.932 119.593 110.272 121.031 108.504 122.354C108.068 122.681 107.623 122.775 107.114 122.615C104.101 121.675 101.255 120.402 98.8419 118.315C96.9683 116.695 95.729 114.717 95.5153 112.172C95.4569 111.474 95.6346 110.805 95.6301 110.117C95.8505 109.592 96.0709 109.067 96.2913 108.544V108.546ZM114.571 110.383C114.582 109.935 114.388 109.108 114.024 108.328C113.347 106.877 112.189 106.192 110.594 106.27C108.698 106.365 107.166 107.674 106.575 109.727C106.442 110.192 106.323 110.66 105.754 110.735C105.225 110.805 104.987 110.399 104.739 110.027C104.053 108.999 103.113 108.339 101.91 108.044C99.3457 107.417 97.2405 109.045 97.2247 111.665C97.2135 113.443 97.9152 114.926 99.1051 116.193C101.298 118.525 104.112 119.798 107.069 120.815C107.38 120.921 107.639 120.882 107.908 120.67C110.002 119.037 111.908 117.229 113.282 114.924C114.038 113.655 114.548 112.305 114.568 110.383H114.571Z" fill="#AFEA0D"/>
<path d="M85.7066 90.2456C85.2702 90.1983 84.8946 90.018 84.8609 89.4682C84.8226 88.8417 85.214 88.5893 85.7583 88.4969C87.1101 88.2693 88.4619 88.0485 89.8136 87.8208C96.8131 86.64 103.813 85.4569 110.812 84.2715C113.136 83.8794 115.461 83.4873 117.782 83.0817C118.396 82.9735 118.86 83.1561 118.965 83.778C119.069 84.3797 118.646 84.6727 118.097 84.7673C116.044 85.1211 113.99 85.4704 111.937 85.8175C105.207 86.9532 98.4775 88.0868 91.7502 89.2225C89.7506 89.5606 87.7511 89.8986 85.7043 90.2456H85.7066Z" fill="#AFEA0D"/>
<path d="M86.577 96.0507C86.1227 96.0056 85.7606 95.8501 85.6863 95.3499C85.5964 94.7279 85.9495 94.4192 86.5006 94.3223C87.931 94.0699 89.366 93.8445 90.7965 93.6011C97.823 92.4113 104.847 91.2169 111.874 90.027C114.089 89.6507 116.309 89.2992 118.522 88.9048C119.166 88.7899 119.681 88.9183 119.782 89.5876C119.885 90.2817 119.352 90.5093 118.752 90.6107C114.427 91.3318 110.104 92.0575 105.778 92.7854C99.5099 93.8423 93.2392 94.9014 86.9706 95.9606C86.8357 95.9831 86.703 96.0237 86.5748 96.053L86.577 96.0507Z" fill="#AFEA0D"/>
<path d="M91.1924 101.191C90.7246 101.186 90.3669 100.984 90.3107 100.45C90.2567 99.9313 90.5109 99.6068 91.0237 99.5144C92.8028 99.2011 94.5842 98.8856 96.3655 98.5837C102.767 97.502 109.17 96.4316 115.569 95.3408C116.183 95.2372 116.647 95.3814 116.766 96.0056C116.892 96.6614 116.431 96.9363 115.857 97.0332C107.728 98.4101 99.5999 99.7848 91.469 101.159C91.3881 101.173 91.3048 101.177 91.1879 101.189L91.1924 101.191Z" fill="#AFEA0D"/>
<path d="M105.862 78.5769C106.372 78.5949 106.73 78.8338 106.793 79.3386C106.865 79.9132 106.5 80.1949 105.981 80.2873C104.307 80.5825 102.632 80.871 100.958 81.1572C99.3097 81.4389 97.6611 81.7161 96.0124 81.9932C95.4929 82.0811 95.0565 81.9437 94.9148 81.3893C94.7754 80.8439 95.0318 80.4541 95.5783 80.3572C99.0061 79.7532 102.438 79.1673 105.862 78.5769Z" fill="#AFEA0D"/>
</g>
<path d="M129.5 0L131.796 6.20423L138 8.5L131.796 10.7958L129.5 17L127.204 10.7958L121 8.5L127.204 6.20423L129.5 0Z" fill="#AFEA0D"/>
<path d="M188 75L189.891 80.1094L195 82L189.891 83.8906L188 89L186.109 83.8906L181 82L186.109 80.1094L188 75Z" fill="#AFEA0D"/>
<path d="M76 10L77.3505 13.6495L81 15L77.3505 16.3505L76 20L74.6495 16.3505L71 15L74.6495 13.6495L76 10Z" fill="#AFEA0D"/>
<path d="M10 86L12.7009 93.2991L20 96L12.7009 98.7009L10 106L7.29909 98.7009L0 96L7.29909 93.2991L10 86Z" fill="#AFEA0D"/>
<circle cx="34" cy="46" r="3.25" stroke="#AFEA0D" stroke-width="1.5"/>
<circle cx="184" cy="126" r="3.25" stroke="#AFEA0D" stroke-width="1.5"/>
<circle cx="166" cy="38" r="5.25" stroke="#AFEA0D" stroke-width="1.5"/>
<defs>
<clipPath id="clip0_73_43">
<rect width="73" height="68" fill="white" transform="translate(67 70)"/>
</clipPath>
</defs>
</svg>
