<svg width="18" height="18" viewBox="0 0 18 18" fill="none" xmlns="http://www.w3.org/2000/svg">
<path d="M9.54 16.6C8.08 16.6 6.62 16.6 5.16 16.6C3.89 16.6 3 15.71 3 14.43C3 12.5 3 10.57 3 8.64C3 7.39 3.86 6.51 5.11 6.49C5.26 6.49 5.24 6.41001 5.24 6.32C5.26 4.5 6.31 2.95 7.98 2.29C10.52 1.28 13.4 2.94 13.79 5.64C13.82 5.87 13.85 6.09 13.84 6.32C13.84 6.44 13.86 6.49 14 6.49C15.02 6.49 15.82 7.14 16.05 8.14C16.09 8.3 16.09 8.46 16.09 8.63C16.09 10.57 16.09 12.51 16.09 14.45C16.09 15.7 15.2 16.59 13.95 16.59C12.48 16.59 11 16.59 9.53 16.59L9.54 16.6ZM9.56 7.62C8.09 7.62 6.61 7.62 5.14 7.62C4.51 7.62 4.12 8.01 4.12 8.64C4.12 10.58 4.12 12.52 4.12 14.46C4.12 15.09 4.51 15.48 5.14 15.48C8.08 15.48 11.02 15.48 13.96 15.48C14.59 15.48 14.98 15.09 14.98 14.46C14.98 12.52 14.98 10.58 14.98 8.64C14.98 8.01 14.59 7.62 13.96 7.62C12.49 7.62 11.03 7.62 9.56 7.62ZM9.54 6.5C10.55 6.5 11.56 6.5 12.57 6.5C12.66 6.5 12.73 6.52 12.73 6.38C12.77 4.70001 11.43 3.24 9.76 3.14C7.91 3.03 6.37 4.48 6.36 6.34C6.36 6.47001 6.38 6.51 6.52 6.51C7.53 6.51 8.53 6.51 9.54 6.51V6.5Z" fill="#9A9C95"/>
<path d="M8.99 12.14C8.99 12.08 8.99 12.01 8.99 11.95C9 11.71 8.98 11.51 8.79 11.3C8.48 10.95 8.58 10.39 8.95 10.08C9.33 9.76 9.89 9.79 10.23 10.16C10.56 10.51 10.57 11.05 10.24 11.4C10.14 11.51 10.1 11.61 10.11 11.75C10.11 12.05 10.11 12.35 10.11 12.64C10.11 12.98 9.86 13.23 9.55 13.23C9.23 13.23 9 12.98 8.99 12.63C8.99 12.47 8.99 12.3 8.99 12.14Z" fill="#9A9C95"/>
</svg>
