<svg width="230" height="162" viewBox="0 0 230 162" fill="none" xmlns="http://www.w3.org/2000/svg">
<circle cx="37.5" cy="29.5" r="28.5" stroke="#00AFFF" stroke-width="2"/>
<path d="M43.8184 48.1633C42.1004 48.1633 41.0387 46.1715 39.7068 43.735C39.3786 43.1355 39.0312 42.4974 38.6644 41.8399C36.985 43.9864 33.4332 48.2213 30.9045 48.0859C30.1517 48.0666 29.5147 47.6992 29.09 47.0417C28.6653 46.4616 28.5109 45.7848 28.646 45.0886C28.897 43.8123 30.0938 42.9228 30.4798 42.6714C31.252 41.8592 32.8734 40.1189 33.4718 39.4614V35.4779L33.3367 28.8258C33.0665 29.1545 32.7962 29.5026 32.5067 29.8893C32.1592 30.3728 31.8504 30.9722 31.5608 31.5717C30.9045 32.8673 30.2868 34.1049 29.1093 34.3756C28.453 34.5303 27.7581 34.3563 27.0439 33.8342C26.4841 33.4281 26.1559 32.848 26.0787 32.1712C25.905 30.6048 27.0246 28.497 29.7077 25.403C29.7463 25.3644 33.6456 20.9941 36.0971 21.2455C36.3094 21.2648 36.5218 21.2841 36.7534 21.2841C38.2398 21.3615 40.2473 21.4582 42.1004 24.3588C43.7026 26.892 46.5981 29.4252 48.374 30.2954C49.397 30.8175 49.8217 31.7844 49.4356 32.79C48.9531 34.0276 47.2351 35.0911 45.5364 34.6077C44.7063 34.3756 43.6447 33.3701 42.1197 31.8618C41.9074 31.649 41.6757 31.417 41.4441 31.2043C41.4441 31.9778 41.4441 33.0027 41.6178 33.2734C42.1776 34.0856 44.2624 37.7984 45.0345 40.525C45.1696 41.0084 45.3434 41.5112 45.5171 42.0139C46.1541 43.8897 46.7525 45.6494 46.0383 46.9257C45.7101 47.5058 45.1696 47.8925 44.3975 48.0859C44.2045 48.1246 44.0114 48.1633 43.8377 48.1633H43.8184ZM35.2091 34.627C38.1625 37.2182 39.9384 40.4863 41.2318 42.9035C42.2934 44.8759 43.22 46.5969 43.9921 46.4036C44.3782 46.3069 44.4747 46.1522 44.494 46.0942C44.8415 45.4754 44.2817 43.8703 43.857 42.5747C43.6833 42.0333 43.4902 41.5112 43.3551 40.9891C42.6409 38.4752 40.6334 34.8977 40.1894 34.2596C39.6682 33.5054 39.6682 32.1325 39.7261 30.4308C39.7261 30.1407 39.7454 29.8893 39.7454 29.6766V29.0965L40.3438 28.7291C41.1159 28.4003 41.7143 29.0191 43.3358 30.6242C44.1079 31.3783 45.5364 32.8093 45.9997 32.9447C46.8104 33.1767 47.6404 32.6353 47.8142 32.1712C47.8528 32.0745 47.8721 31.9971 47.5825 31.8618C45.575 30.8562 42.4093 28.1103 40.6141 25.287C39.2628 23.1405 37.9888 23.0825 36.6569 23.0245C36.3866 23.0245 36.1357 23.0052 35.9041 22.9665C34.9968 22.8698 32.4874 24.8422 31.0203 26.5246C28.2214 29.7733 27.7195 31.2623 27.7967 31.9584C27.816 32.1518 27.8932 32.2872 28.0669 32.4225C28.3372 32.6159 28.5688 32.7126 28.7039 32.6739C29.1093 32.5772 29.6305 31.533 30.0166 30.7595C30.3447 30.102 30.6922 29.4446 31.1168 28.8451C32.275 27.2401 33.4911 26.0025 33.5491 25.9638L34.9968 24.5135L35.2091 34.6077V34.627ZM35.2091 37.0442V40.1382L34.9775 40.3896C34.9775 40.3896 32.5646 42.9808 31.6573 43.9284L31.4836 44.0637C31.2134 44.2184 30.4412 44.8179 30.3254 45.4173C30.3061 45.5527 30.2868 45.7654 30.4991 46.0361C30.6536 46.2875 30.7694 46.3262 30.9238 46.3262H30.9431C32.4295 46.3262 35.6338 42.9035 37.6607 40.2156C36.9657 39.1327 36.155 38.0498 35.1898 37.0249L35.2091 37.0442Z" fill="#00AFFF"/>
<path d="M37.5062 20.472C35.1898 20.472 33.2981 18.5769 33.2981 16.2564C33.2981 13.9359 35.1898 12.0408 37.5062 12.0408C39.8226 12.0408 41.7143 13.9359 41.7143 16.2564C41.7143 18.5769 39.8226 20.472 37.5062 20.472ZM37.5062 13.8005C36.155 13.8005 35.0354 14.9028 35.0354 16.2757C35.0354 17.6487 36.1357 18.7509 37.5062 18.7509C38.8767 18.7509 39.977 17.6487 39.977 16.2757C39.977 14.9028 38.8767 13.8005 37.5062 13.8005Z" fill="#00AFFF"/>
<circle cx="115.273" cy="29.5" r="28.5" stroke="#9ADD17" stroke-width="2"/>
<path d="M115.835 48.1632C115.42 48.1632 115.005 48.018 114.673 47.7483L112.952 46.3167C112.226 45.715 112.039 44.6776 112.495 43.8476L115.399 38.7229C115.399 38.7229 115.42 38.5154 115.337 38.4531L113.159 36.9593C112.516 38.2664 110.442 41.1919 106.335 40.196C103.099 39.4283 100.403 38.5361 99.096 38.0797C98.5774 37.8929 98.1626 37.4987 97.9551 36.98C97.7477 36.4613 97.7685 35.9011 98.0174 35.4032L99.3241 32.8511C99.8012 31.9382 100.859 31.5233 101.813 31.8967L106.605 33.7641L114.673 24.3237L113.45 23.722L109.218 27.4566C109.114 27.5604 108.077 28.3903 106.916 28.328C106.314 28.2866 105.754 27.9961 105.339 27.4981C104.136 26.0873 104.489 24.7801 104.883 24.2407L110.11 19.5101C110.504 19.1574 111.002 18.9499 111.541 18.9499H118.034C118.531 18.9499 119.029 19.1159 119.444 19.4064L123.8 22.6431C124.132 22.892 124.402 23.224 124.609 23.5975L126.331 27.0002L131.516 27.1454C132.201 27.1454 133.528 27.7056 133.57 29.8219C133.59 30.7556 133.341 31.461 132.844 31.9382C132.263 32.4777 131.578 32.4362 131.454 32.4154L124.049 32.3324C123.427 32.3324 122.846 32.0627 122.41 31.627L120.564 29.6559L118.49 32.2702L122.327 36.2331C123.033 36.9593 123.136 38.0589 122.597 38.9303L117.308 47.2918C117.038 47.7275 116.582 48.0388 116.063 48.1217C115.959 48.1217 115.876 48.1425 115.773 48.1425L115.835 48.1632ZM113.201 35.2994C113.533 35.2994 113.844 35.4032 114.113 35.5899L116.291 37.0837C117.08 37.6232 117.328 38.7021 116.872 39.5528L113.968 44.6776C113.906 44.802 113.927 44.9473 114.03 45.051L115.752 46.4826L115.98 46.4411L121.269 38.0797C121.394 37.8722 121.373 37.6025 121.207 37.4365L117.204 33.2868C116.727 32.7889 116.685 32.0005 117.121 31.461L119.652 28.2658C119.88 27.9961 120.212 27.8093 120.564 27.8093C120.917 27.8093 121.269 27.9338 121.518 28.2036L123.717 30.5273C123.821 30.6518 123.987 30.7141 124.153 30.7141L131.641 30.7971C131.869 30.6933 132.014 30.5066 131.993 29.9049C131.972 28.9297 131.599 28.8468 131.578 28.8468L126.58 28.8053C125.874 28.8053 125.252 28.411 124.941 27.7886L123.219 24.3859C123.136 24.2407 123.033 24.1162 122.908 24.0124L118.552 20.7757C118.428 20.6927 118.283 20.6305 118.137 20.6305H111.645C111.521 20.6305 111.417 20.672 111.334 20.755L106.314 25.2573C106.252 25.4233 106.169 25.8383 106.688 26.44C106.854 26.6475 107.02 26.6682 107.123 26.6889C107.559 26.7304 108.098 26.3155 108.202 26.2325L112.392 22.4978C112.91 22.0414 113.636 21.9376 114.259 22.2489L117.391 23.7842L107.165 35.7559L101.274 33.4528C101.129 33.3906 100.942 33.4528 100.859 33.5981L99.5523 36.1501C99.5523 36.1501 99.5316 36.3161 99.5523 36.3576C101.004 36.9593 103.639 37.8099 106.791 38.5776C109.55 39.2416 111.044 37.6232 111.811 36.1708C112.039 35.7559 112.413 35.4654 112.869 35.3409C112.993 35.2994 113.118 35.2994 113.263 35.2994H113.201Z" fill="#9ADD17"/>
<path d="M124.235 20.2571C121.974 20.2571 120.128 18.4105 120.128 16.1489C120.128 13.8874 121.974 12.0408 124.235 12.0408C126.496 12.0408 128.342 13.8874 128.342 16.1489C128.342 18.4105 126.496 20.2571 124.235 20.2571ZM124.235 13.7007C122.887 13.7007 121.788 14.8003 121.788 16.1489C121.788 17.4976 122.887 18.5972 124.235 18.5972C125.584 18.5972 126.683 17.4976 126.683 16.1489C126.683 14.8003 125.584 13.7007 124.235 13.7007Z" fill="#9ADD17"/>
<circle cx="193.045" cy="29.5" r="28.5" stroke="#F58416" stroke-width="2"/>
<path d="M182.11 46.9592C178.506 46.9592 175.586 44.0389 175.586 40.4338C175.586 36.8288 178.506 33.9085 182.11 33.9085C185.714 33.9085 188.633 36.8288 188.633 40.4338C188.633 44.0389 185.714 46.9592 182.11 46.9592ZM182.11 35.5197C179.392 35.5197 177.197 37.7149 177.197 40.4338C177.197 43.1527 179.392 45.348 182.11 45.348C184.828 45.348 187.022 43.1527 187.022 40.4338C187.022 37.7149 184.828 35.5197 182.11 35.5197Z" fill="#F58416"/>
<path d="M205.003 46.9592C201.398 46.9592 198.479 44.0389 198.479 40.4338C198.479 36.8288 201.398 33.9085 205.003 33.9085C208.607 33.9085 211.526 36.8288 211.526 40.4338C211.526 44.0389 208.607 46.9592 205.003 46.9592ZM205.003 35.5197C202.284 35.5197 200.09 37.7149 200.09 40.4338C200.09 43.1527 202.284 45.348 205.003 45.348C207.721 45.348 209.915 43.1527 209.915 40.4338C209.915 37.7149 207.721 35.5197 205.003 35.5197Z" fill="#F58416"/>
<path d="M201.439 21.2606C199.224 21.2606 197.432 19.4681 197.432 17.2527C197.432 15.0373 199.224 13.2449 201.439 13.2449C203.653 13.2449 205.445 15.0373 205.445 17.2527C205.445 19.4681 203.653 21.2606 201.439 21.2606ZM201.439 14.8561C200.11 14.8561 199.043 15.9235 199.043 17.2527C199.043 18.582 200.11 19.6494 201.439 19.6494C202.767 19.6494 203.835 18.582 203.835 17.2527C203.835 15.9235 202.767 14.8561 201.439 14.8561Z" fill="#F58416"/>
<path d="M192.278 45.0862C191.895 45.0862 191.432 44.9653 190.929 44.6028C189.076 43.2736 189.781 41.0179 190.405 40.0109L191.533 36.7281C191.593 36.5468 191.533 36.3454 191.392 36.2447L187.808 33.6064C187.425 33.3647 185.11 31.8341 184.788 29.6992C184.647 28.7325 184.949 27.7658 185.674 26.9401C187.687 24.624 193.325 21.4217 195.64 20.1328C196.385 19.73 197.271 19.8307 197.936 20.3744L199.365 21.5828C199.828 21.9655 200.09 22.5294 200.09 23.1336V26.7991C200.09 27.0206 200.251 27.2019 200.473 27.222L205.103 27.7658C205.728 27.8464 206.855 28.4103 206.835 30.0215C206.835 30.7465 206.493 31.1695 206.211 31.4111C205.486 32.0355 204.419 31.9348 204.298 31.9146H199.627C198.58 31.9751 196.385 31.3709 195.862 28.7728L195.64 27.7255L193.224 29.7597C193.083 29.8805 193.063 30.1423 193.224 30.3236L196.687 34.5127C197.15 35.0766 197.291 35.8621 197.009 36.5468L194.613 42.8104C194.593 42.9111 194.13 44.5424 192.902 44.9653C192.741 45.0258 192.519 45.066 192.278 45.066V45.0862ZM196.627 21.5023C196.627 21.5023 196.486 21.5023 196.426 21.5627C194.674 22.5294 188.795 25.8122 186.902 28.0075C186.479 28.4908 186.318 28.9541 186.399 29.4576C186.58 30.6861 188.11 31.8945 188.694 32.257L188.754 32.2973L192.358 34.9558C193.083 35.4996 193.365 36.426 193.063 37.2719L191.855 40.7158C191.734 40.9373 190.788 42.5284 191.875 43.3139C192.016 43.4146 192.217 43.5354 192.358 43.475C192.66 43.3743 192.983 42.6895 193.083 42.327L195.519 35.9829C195.58 35.8419 195.54 35.6808 195.459 35.56L191.996 31.3709C191.311 30.5451 191.392 29.3166 192.177 28.5714L196.707 24.765L197.472 28.4707C197.855 30.3236 199.466 30.3639 199.627 30.3437H204.439C204.721 30.3639 205.063 30.3437 205.204 30.2229C205.204 30.2229 205.264 30.1826 205.264 30.0215C205.264 29.4374 204.962 29.3971 204.962 29.3971L200.352 28.8534C199.325 28.7325 198.56 27.8665 198.56 26.8394V23.1739C198.56 23.0531 198.499 22.9322 198.419 22.8517L196.989 21.6231C196.989 21.6231 196.808 21.5224 196.707 21.5224L196.627 21.5023Z" fill="#F58416"/>
<path d="M5.24406 97.632H13.9226C21.7148 97.632 25.6294 100.16 25.6294 105.253C25.6294 110.345 23.2659 113.059 18.5019 113.803V113.877C19.499 114.323 20.2376 114.955 20.6808 115.81C21.124 116.665 21.641 118.115 22.158 120.271L24.1892 128.747H15.7691L14.4027 121.795C13.9226 119.453 13.5164 118.003 13.1102 117.409C12.7409 116.851 12.0023 116.554 10.9313 116.554H10.1188L8.08767 128.747H0L5.24406 97.632ZM12.3346 103.617L11.0421 111.015C11.3375 111.015 11.7807 111.052 12.4085 111.052C15.8799 111.052 17.6525 109.676 17.6525 106.963C17.6525 104.732 16.1753 103.617 13.2579 103.617H12.3346Z" fill="white"/>
<path d="M31.6122 97.632H39.9953L37.1148 114.36C36.6716 116.962 36.4501 118.784 36.4501 119.788C36.4501 120.791 36.6716 121.572 37.1517 122.167C37.6318 122.762 38.2596 123.059 39.0721 123.059C40.3277 123.059 41.2879 122.539 41.9157 121.535C42.5435 120.494 43.0975 118.71 43.5406 116.107L46.6058 97.632H54.8043L51.4067 117.855C50.742 121.795 49.4863 124.695 47.566 126.591C45.6456 128.486 42.9128 129.416 39.3306 129.416C31.8707 129.416 28.1777 126.256 28.1777 119.899C28.1777 118.635 28.3993 116.777 28.8055 114.397L31.6122 97.632Z" fill="white"/>
<path d="M76.9621 97.632H84.3481L79.2148 128.784H68.3205C66.8064 119.936 65.8462 112.502 65.4399 106.479H65.3661C65.1445 109.119 64.0366 116.554 62.0424 128.784H54.5825L59.8635 97.632H70.684C72.4566 108.078 73.4907 115.438 73.7492 119.713H73.8231C74.2662 114.881 75.3003 107.52 76.9621 97.632Z" fill="white"/>
<path d="M166.924 97.632L170.875 128.784H162.677L162.086 122.39H153.666L150.785 128.784H142.218L156.953 97.632H166.924ZM156.103 116.33H161.827C161.31 109.714 161.089 105.773 161.089 104.435H161.015C160.202 106.777 158.578 110.754 156.14 116.33H156.103Z" fill="white"/>
<path d="M179.037 97.632H187.715C195.507 97.632 199.422 100.16 199.422 105.253C199.422 110.345 197.058 113.059 192.294 113.803V113.877C193.292 114.323 194.03 114.955 194.473 115.81C194.917 116.665 195.434 118.115 195.951 120.271L197.982 128.747H189.562L188.195 121.795C187.715 119.453 187.309 118.003 186.903 117.409C186.533 116.851 185.795 116.554 184.724 116.554H183.911L181.88 128.747H173.756L179.037 97.632ZM186.127 103.617L184.835 111.015C185.13 111.015 185.573 111.052 186.201 111.052C189.672 111.052 191.445 109.676 191.445 106.963C191.445 104.732 189.968 103.617 187.05 103.617H186.127Z" fill="white"/>
<path d="M222.614 97.632H230L224.867 128.784H213.972C212.458 119.936 211.498 112.502 211.092 106.479H211.018C210.796 109.119 209.688 116.554 207.694 128.784H200.234L205.515 97.632H216.336C218.109 108.078 219.143 115.438 219.401 119.713H219.475C219.918 114.881 220.952 107.52 222.614 97.632Z" fill="white"/>
<path d="M104.032 113.319L108.057 118.264C108.574 117.594 109.054 116.665 109.46 115.401C109.867 114.137 110.162 112.91 110.31 111.758H116.994C116.071 116.405 114.335 120.122 111.824 122.947L117.863 129.733H109.295L106.728 126.888C104.844 128.449 102.333 129.267 99.2308 129.267C96.3134 129.267 93.876 128.486 91.9187 126.888C89.9614 125.327 89.0012 123.245 89.0012 120.717C89.0012 118.412 89.5552 116.479 90.6631 114.881C91.771 113.282 93.322 112.13 95.2793 111.424C93.8021 109.342 93.0635 107.409 93.0635 105.662C93.0635 103.654 93.5436 101.981 94.5407 100.606C95.5378 99.2305 96.7196 98.3011 98.086 97.7807C99.4524 97.2602 100.93 97 102.555 97C104.844 97 106.765 97.6692 108.389 98.9702C110.014 100.271 110.79 102.13 110.79 104.509C110.79 106.517 110.236 108.227 109.165 109.639C108.094 111.052 106.358 112.279 103.995 113.245L104.032 113.319ZM103.404 122.39L98.3445 115.513C96.8673 116.256 96.1287 117.483 96.1287 119.156C96.1287 120.457 96.5349 121.498 97.3105 122.204C98.086 122.947 99.12 123.282 100.376 123.282C101.52 123.282 102.518 122.985 103.404 122.353V122.39ZM101.151 109.193L101.594 109.007C103.699 108.189 104.733 106.777 104.733 104.769C104.733 103.989 104.512 103.394 104.106 102.911C103.662 102.465 103.108 102.204 102.37 102.204C101.447 102.204 100.782 102.502 100.339 103.134C99.8956 103.729 99.7109 104.472 99.7109 105.327C99.7109 106.554 100.191 107.818 101.188 109.156L101.151 109.193Z" fill="white"/>
<path d="M123.99 97.9664L122.731 103.765H132.108H143.829L144.958 97.9664H123.99Z" fill="url(#paint0_linear_112_301)"/>
<path d="M131.113 110.529H131.029H121.977L120.798 116.328H130.439H130.397H140.88L142.059 110.529H131.113Z" fill="url(#paint1_linear_112_301)"/>
<path d="M128.517 122.126H119.161L117.899 128.891H139.874L141.092 122.126H129.126H128.517Z" fill="url(#paint2_linear_112_301)"/>
<path d="M104.104 156L101.864 152.108H100.646V156H99.05V146.27H102.41C103.157 146.27 103.787 146.401 104.3 146.662C104.823 146.923 105.21 147.273 105.462 147.712C105.723 148.151 105.854 148.641 105.854 149.182C105.854 149.817 105.667 150.395 105.294 150.918C104.93 151.431 104.365 151.781 103.6 151.968L106.008 156H104.104ZM100.646 150.834H102.41C103.007 150.834 103.455 150.685 103.754 150.386C104.062 150.087 104.216 149.686 104.216 149.182C104.216 148.678 104.067 148.286 103.768 148.006C103.469 147.717 103.017 147.572 102.41 147.572H100.646V150.834ZM109.478 146.27V152.472C109.478 153.209 109.669 153.765 110.052 154.138C110.444 154.511 110.985 154.698 111.676 154.698C112.376 154.698 112.917 154.511 113.3 154.138C113.692 153.765 113.888 153.209 113.888 152.472V146.27H115.484V152.444C115.484 153.237 115.311 153.909 114.966 154.46C114.62 155.011 114.158 155.421 113.58 155.692C113.001 155.963 112.362 156.098 111.662 156.098C110.962 156.098 110.322 155.963 109.744 155.692C109.174 155.421 108.722 155.011 108.386 154.46C108.05 153.909 107.882 153.237 107.882 152.444V146.27H109.478ZM125.556 156H123.96L119.158 148.734V156H117.562V146.256H119.158L123.96 153.508V146.256H125.556V156Z" fill="white"/>
<circle cx="139.6" cy="151.6" r="2.6" fill="white"/>
<path d="M152.518 151.114C152.518 150.162 152.737 149.308 153.176 148.552C153.624 147.796 154.226 147.208 154.982 146.788C155.747 146.359 156.583 146.144 157.488 146.144C158.524 146.144 159.443 146.401 160.246 146.914C161.058 147.418 161.646 148.137 162.01 149.07H160.092C159.84 148.557 159.49 148.174 159.042 147.922C158.594 147.67 158.076 147.544 157.488 147.544C156.844 147.544 156.27 147.689 155.766 147.978C155.262 148.267 154.865 148.683 154.576 149.224C154.296 149.765 154.156 150.395 154.156 151.114C154.156 151.833 154.296 152.463 154.576 153.004C154.865 153.545 155.262 153.965 155.766 154.264C156.27 154.553 156.844 154.698 157.488 154.698C158.076 154.698 158.594 154.572 159.042 154.32C159.49 154.068 159.84 153.685 160.092 153.172H162.01C161.646 154.105 161.058 154.824 160.246 155.328C159.443 155.832 158.524 156.084 157.488 156.084C156.573 156.084 155.738 155.874 154.982 155.454C154.226 155.025 153.624 154.432 153.176 153.676C152.737 152.92 152.518 152.066 152.518 151.114ZM171.088 146.27L167.868 152.472V156H166.272V152.472L163.038 146.27H164.816L167.07 151.044L169.324 146.27H171.088ZM171.823 151.114C171.823 150.162 172.042 149.308 172.481 148.552C172.929 147.796 173.531 147.208 174.287 146.788C175.052 146.359 175.887 146.144 176.793 146.144C177.829 146.144 178.748 146.401 179.551 146.914C180.363 147.418 180.951 148.137 181.315 149.07H179.397C179.145 148.557 178.795 148.174 178.347 147.922C177.899 147.67 177.381 147.544 176.793 147.544C176.149 147.544 175.575 147.689 175.071 147.978C174.567 148.267 174.17 148.683 173.881 149.224C173.601 149.765 173.461 150.395 173.461 151.114C173.461 151.833 173.601 152.463 173.881 153.004C174.17 153.545 174.567 153.965 175.071 154.264C175.575 154.553 176.149 154.698 176.793 154.698C177.381 154.698 177.899 154.572 178.347 154.32C178.795 154.068 179.145 153.685 179.397 153.172H181.315C180.951 154.105 180.363 154.824 179.551 155.328C178.748 155.832 177.829 156.084 176.793 156.084C175.878 156.084 175.043 155.874 174.287 155.454C173.531 155.025 172.929 154.432 172.481 153.676C172.042 152.92 171.823 152.066 171.823 151.114ZM184.779 154.712H188.069V156H183.183V146.27H184.779V154.712ZM191 147.558V150.414H194.36V151.716H191V154.698H194.78V156H189.404V146.256H194.78V147.558H191Z" fill="white"/>
<circle cx="85.6" cy="151.6" r="2.6" fill="white"/>
<path d="M47.72 146.27L44.836 156H43.03L40.986 148.636L38.816 156L37.024 156.014L34.266 146.27H35.96L37.976 154.194L40.16 146.27H41.952L43.982 154.152L46.012 146.27H47.72ZM54.9023 154.012H50.8283L50.1283 156H48.4623L51.9483 146.256H53.7963L57.2823 156H55.6023L54.9023 154.012ZM54.4543 152.71L52.8723 148.188L51.2763 152.71H54.4543ZM60.394 154.712H63.684V156H58.798V146.27H60.394V154.712ZM70.3808 156L66.6148 151.646V156H65.0188V146.27H66.6148V150.708L70.3948 146.27H72.3968L68.1688 151.142L72.4668 156H70.3808Z" fill="white"/>
<defs>
<linearGradient id="paint0_linear_112_301" x1="144.689" y1="100.651" x2="119.832" y2="100.651" gradientUnits="userSpaceOnUse">
<stop stop-color="#9ADD17"/>
<stop offset="1" stop-opacity="0"/>
</linearGradient>
<linearGradient id="paint1_linear_112_301" x1="141.801" y1="113.214" x2="118.025" y2="113.214" gradientUnits="userSpaceOnUse">
<stop stop-color="#9ADD17"/>
<stop offset="1" stop-opacity="0"/>
</linearGradient>
<linearGradient id="paint2_linear_112_301" x1="140.811" y1="125.258" x2="114.874" y2="125.258" gradientUnits="userSpaceOnUse">
<stop stop-color="#9ADD17"/>
<stop offset="1" stop-opacity="0"/>
</linearGradient>
</defs>
</svg>
