<svg width="190" height="63" viewBox="0 0 190 63" fill="none" xmlns="http://www.w3.org/2000/svg">
<g clip-path="url(#clip0_37_41)">
<path d="M153.542 42H75.5232L146.005 44.1592C146.005 44.1592 149.269 43.3304 153.526 42H153.542Z" fill="#AFEA0D"/>
<path d="M145.17 45.0121H84.4891L139.845 47.1498C139.845 47.1498 142.198 46.081 145.158 45.0121H145.17Z" fill="#AFEA0D"/>
<path d="M137.443 48.4777H89.1455L133.204 50.637C133.204 50.637 135.077 49.5574 137.433 48.4777H137.443Z" fill="#AFEA0D"/>
</g>
<g clip-path="url(#clip1_37_41)">
<path d="M136 62.0002C137.901 60.372 139.685 58.8997 141.409 57.3581C147.405 51.9904 152.169 45.7027 157.364 39.3978C160.651 34.4131 178.313 15.3634 160.585 5.58073C156.873 4.13536 151.598 3.85629 147.785 4.55685C146.549 4.78395 145.326 5.09766 144.074 5.31899C145.835 4.15653 147.734 3.27122 149.713 2.56489C153.599 1.17726 157.57 0.513276 161.662 1.40821C166.922 2.55719 170.392 6.00991 173.114 10.5019C176.879 16.7126 176.019 22.7789 172.789 28.8221C170.339 33.4027 167.04 37.325 163.427 40.9894C156.05 48.4684 147.679 54.6636 138.916 60.3527C138.091 60.8878 137.252 61.4016 136.415 61.9232C136.367 61.9521 136.299 61.9463 136 62.0021V62.0002Z" fill="#AFEA0D"/>
<path d="M158.989 49.4728C162.021 48.4489 165.027 47.3558 167.62 45.3927C170.392 43.2968 170.224 41.1663 167.186 39.49C166.91 39.3379 166.625 39.1993 166.267 39.0146C167.628 37.5211 168.959 36.0469 170.076 34.3975C170.148 34.2916 170.23 34.1935 170.302 34.0895C171.109 32.9117 172.12 32.7276 173.335 33.5372C174.815 34.5303 176.274 35.5503 177.315 37.0534C178.804 39.209 178.639 41.1451 176.744 42.9658C174.845 44.7903 172.481 45.8161 170.076 46.7283C166.545 48.0659 162.896 48.9917 159.196 49.7038C159.006 49.7384 158.937 49.6614 158.991 49.4728H158.989Z" fill="#AFEA0D"/>
<path d="M186.705 3.31529C188.446 7.81884 189.985 12.3185 190 17.1647C190.004 18.6793 189.774 20.169 188.9 21.4642C187.841 23.0366 186.258 23.4812 184.504 23.4177C181.656 23.3157 179.095 22.2302 176.609 20.9292C176.402 20.8214 176.255 20.7213 176.297 20.4288C176.636 18.05 176.006 15.8059 175.234 13.3039C176.681 14.6896 177.96 15.8829 179.409 16.8606C180.123 17.3417 180.867 17.7594 181.677 18.05C183.825 18.8179 185.406 18.1019 186.258 15.956C186.806 14.5761 187.027 13.1211 187.087 11.6449C187.19 9.14296 187.099 6.64868 186.756 4.16596C186.718 3.88497 186.72 3.60013 186.705 3.31721V3.31529Z" fill="#AFEA0D"/>
<path d="M176.723 10.4594C174.212 10.4652 172.271 8.50207 172.283 5.96545C172.292 3.58473 174.284 1.58893 176.662 1.57545C179.109 1.56198 181.066 3.52122 181.076 5.9924C181.085 8.49629 179.179 10.4517 176.723 10.4575V10.4594Z" fill="#AFEA0D"/>
</g>
<path d="M4.556 9.268H11.22C17.204 9.268 20.196 11.206 20.196 15.082C20.196 18.8447 18.3713 21.0207 14.722 21.61V21.678C15.4927 22.018 16.048 22.5053 16.388 23.14C16.7507 23.7747 17.136 24.908 17.544 26.54L19.108 33H12.648L11.594 27.696C11.2313 25.9053 10.9027 24.7947 10.608 24.364C10.3133 23.9333 9.758 23.718 8.942 23.718H8.33L6.766 33H0.544L4.556 9.268ZM9.996 13.824L9.01 19.468C9.23667 19.4907 9.588 19.502 10.064 19.502C12.7387 19.502 14.076 18.4593 14.076 16.374C14.076 14.674 12.954 13.824 10.71 13.824H9.996ZM32.6431 29.974H32.5751C31.3284 32.3087 29.4244 33.476 26.8631 33.476C25.5484 33.476 24.5058 33.0453 23.7351 32.184C22.9644 31.3227 22.5791 30.0987 22.5791 28.512C22.5791 27.4013 22.7604 25.8147 23.1231 23.752L24.6191 15.252H30.6031L29.0051 24.228C28.8011 25.452 28.6991 26.336 28.6991 26.88C28.6991 28.1493 29.1864 28.784 30.1611 28.784C30.8638 28.784 31.4644 28.3533 31.9631 27.492C32.4618 26.608 32.8131 25.5313 33.0171 24.262L34.6151 15.252H40.6671L38.2531 28.988C38.0264 30.3027 37.8564 31.64 37.7431 33H32.2351C32.2804 31.912 32.4164 30.9033 32.6431 29.974ZM50.4782 18.278H50.5462C51.1582 17.122 51.9402 16.2493 52.8922 15.66C53.8442 15.0707 54.8755 14.776 55.9862 14.776C57.3688 14.776 58.4682 15.1953 59.2842 16.034C60.1228 16.85 60.5422 18.0853 60.5422 19.74C60.5422 20.896 60.3608 22.4827 59.9982 24.5L58.4682 33H52.5182L54.0822 24.058C54.2862 22.7887 54.3882 21.8933 54.3882 21.372C54.3882 20.1253 53.9462 19.502 53.0622 19.502C52.2915 19.502 51.6455 19.944 51.1242 20.828C50.6255 21.6893 50.2742 22.7433 50.0702 23.99L48.5062 33H42.4202L44.8342 19.264C45.0608 17.9493 45.2308 16.612 45.3442 15.252H50.8522C50.8068 16.2267 50.6822 17.2353 50.4782 18.278ZM75.2832 21.236L78.3772 25.01C78.7852 24.5113 79.1479 23.786 79.4652 22.834C79.7825 21.8593 79.9979 20.93 80.1112 20.046H85.2452C84.5425 23.582 83.2165 26.4267 81.2672 28.58L84.9392 33H78.3772L77.3572 31.572C75.9065 32.7733 73.9912 33.374 71.6112 33.374C69.3672 33.374 67.4972 32.7733 66.0012 31.572C64.5052 30.3707 63.7572 28.8067 63.7572 26.88C63.7572 25.1347 64.1765 23.6613 65.0152 22.46C65.8765 21.236 67.0665 20.352 68.5852 19.808C67.4519 18.2213 66.8852 16.7593 66.8852 15.422C66.8852 13.9033 67.2592 12.6227 68.0072 11.58C68.7779 10.5373 69.6845 9.82333 70.7272 9.438C71.7925 9.03 72.9372 8.826 74.1612 8.826C75.9065 8.826 77.3912 9.336 78.6152 10.356C79.8619 11.3533 80.4852 12.7587 80.4852 14.572C80.4852 16.0907 80.0659 17.394 79.2272 18.482C78.4112 19.57 77.0965 20.488 75.2832 21.236ZM73.0732 18.074L73.4132 17.938C75.0225 17.3033 75.8272 16.2267 75.8272 14.708C75.8272 14.1187 75.6572 13.654 75.3172 13.314C74.9999 12.9513 74.5579 12.77 73.9912 12.77C73.2885 12.77 72.7672 13.008 72.4272 13.484C72.1099 13.9373 71.9512 14.4927 71.9512 15.15C71.9512 16.0793 72.3252 17.054 73.0732 18.074ZM74.8072 28.138L70.9312 22.902C69.7979 23.4687 69.2312 24.398 69.2312 25.69C69.2312 26.6873 69.5259 27.4693 70.1152 28.036C70.7272 28.58 71.5205 28.852 72.4952 28.852C73.3792 28.852 74.1499 28.614 74.8072 28.138ZM91.1986 9.268H104.901L104.153 14.062H96.5026L95.6866 18.788H103.099L102.317 23.412H94.9046L94.0886 28.206H102.283L101.501 33H87.1866L91.1986 9.268ZM105.451 28.172C105.451 26.0867 106.199 24.5227 107.695 23.48C109.214 22.4147 111.277 21.882 113.883 21.882C114.609 21.882 115.425 21.9273 116.331 22.018C116.399 21.7687 116.433 21.5307 116.433 21.304C116.433 20.3973 116.207 19.774 115.753 19.434C115.3 19.0713 114.552 18.89 113.509 18.89C111.696 18.89 110.03 19.2187 108.511 19.876L108.919 15.592C110.642 15.048 112.614 14.776 114.835 14.776C119.595 14.776 121.975 16.6913 121.975 20.522C121.975 21.1113 121.885 22.0293 121.703 23.276C121.545 24.5227 121.341 25.8487 121.091 27.254C120.865 28.6593 120.729 29.5433 120.683 29.906C120.525 30.9713 120.445 32.0027 120.445 33H115.175C115.175 32.184 115.209 31.3793 115.277 30.586H115.209C114.008 32.422 112.353 33.34 110.245 33.34C108.863 33.34 107.718 32.8867 106.811 31.98C105.905 31.0507 105.451 29.7813 105.451 28.172ZM115.957 25.112C115.617 25.044 115.175 25.01 114.631 25.01C113.294 25.01 112.319 25.214 111.707 25.622C111.118 26.0073 110.823 26.6193 110.823 27.458C110.823 28.1153 111.016 28.6027 111.401 28.92C111.787 29.2373 112.263 29.396 112.829 29.396C114.597 29.396 115.64 27.968 115.957 25.112ZM127.638 15.252H133.214C133.123 16.5893 132.965 17.734 132.738 18.686H132.806C134.007 16.0793 135.583 14.776 137.532 14.776C138.099 14.776 138.563 14.8893 138.926 15.116L137.634 20.692C137.181 20.4427 136.591 20.318 135.866 20.318C133.917 20.318 132.693 21.8253 132.194 24.84L130.834 33H124.714L127.128 19.264C127.377 17.8813 127.547 16.544 127.638 15.252ZM147.152 18.278H147.22C147.832 17.122 148.614 16.2493 149.566 15.66C150.518 15.0707 151.549 14.776 152.66 14.776C154.043 14.776 155.142 15.1953 155.958 16.034C156.797 16.85 157.216 18.0853 157.216 19.74C157.216 20.896 157.035 22.4827 156.672 24.5L155.142 33H149.192L150.756 24.058C150.96 22.7887 151.062 21.8933 151.062 21.372C151.062 20.1253 150.62 19.502 149.736 19.502C148.965 19.502 148.319 19.944 147.798 20.828C147.299 21.6893 146.948 22.7433 146.744 23.99L145.18 33H139.094L141.508 19.264C141.735 17.9493 141.905 16.612 142.018 15.252H147.526C147.481 16.2267 147.356 17.2353 147.152 18.278Z" fill="white"/>
<defs>
<clipPath id="clip0_37_41">
<rect width="76" height="8" fill="white" transform="matrix(1 0 0 -1 78 50)"/>
</clipPath>
<clipPath id="clip1_37_41">
<rect width="54" height="62" fill="white" transform="translate(136 1)"/>
</clipPath>
</defs>
</svg>
