<svg width="18" height="18" viewBox="0 0 18 18" fill="none" xmlns="http://www.w3.org/2000/svg">
<path d="M9.00768 3C10.4246 3 11.8415 3 13.258 3C15.1236 3 16.5869 4.20316 16.945 6.03269C16.9883 6.25411 17 6.47824 16.9996 6.70372C16.9987 8.51432 17.0018 10.3245 16.9982 12.1351C16.995 13.9565 15.7802 15.4307 13.9975 15.7842C13.7427 15.8347 13.4843 15.8428 13.2255 15.8428C10.4088 15.8428 7.59212 15.828 4.77543 15.8483C2.94364 15.8613 1.52177 14.6433 1.12222 13.1195C1.04105 12.8083 1.00046 12.4927 1.00091 12.1702C1.00226 10.3371 0.997303 8.5044 1.00271 6.67125C1.00813 4.77993 2.38851 3.23856 4.26901 3.01669C4.41917 2.9991 4.57205 3.0009 4.72357 3.0009C6.15176 3 7.57994 3 9.00768 3ZM8.99279 14.8214C10.4489 14.8214 11.9055 14.8282 13.3617 14.8196C14.7993 14.8115 15.97 13.6512 15.979 12.2144C15.9903 10.3587 15.9831 8.50304 15.9813 6.6478C15.9813 6.24329 15.8852 5.85817 15.7089 5.4938C15.6232 5.31657 15.6223 5.31657 15.4825 5.45637C14.131 6.80834 12.7777 8.15896 11.428 9.51274C10.7885 10.1536 10.0237 10.5071 9.11681 10.5351C8.1265 10.5657 7.28276 10.2212 6.58287 9.52131C5.22729 8.16528 3.87171 6.80924 2.51613 5.45321C2.42474 5.36152 2.34958 5.37595 2.29065 5.49651C2.10395 5.88207 2.01737 6.28974 2.01782 6.7177C2.01917 8.52289 2.01872 10.3276 2.01782 12.1328C2.01782 12.3136 2.0309 12.4927 2.06698 12.669C2.32853 13.9506 3.38468 14.8183 4.692 14.821C6.1256 14.8237 7.55965 14.8214 8.99324 14.8214H8.99279ZM9.00948 4.01826V4.02052C7.53124 4.02052 6.05255 4.01646 4.5743 4.02277C4.06743 4.02503 3.6079 4.19459 3.184 4.47012C3.08479 4.53461 3.07351 4.5743 3.16416 4.66404C4.55807 6.05299 5.94251 7.45051 7.34048 8.83495C8.26855 9.754 9.71568 9.76347 10.646 8.84622C12.0553 7.45727 13.446 6.04938 14.8471 4.65231C14.9251 4.57475 14.922 4.54228 14.8309 4.48095C14.3601 4.16347 13.8428 4.01556 13.276 4.01691C11.8537 4.02007 10.4318 4.01781 9.00948 4.01781V4.01826Z" fill="#9A9C95"/>
</svg>
