<svg width="330" height="150" viewBox="0 0 330 150" fill="none" xmlns="http://www.w3.org/2000/svg">
<rect width="330" height="150" rx="5" fill="#FBFFEB"/>
<g clip-path="url(#clip0_58_341)">
<path opacity="0.8" d="M304.715 29.263C303.069 28.3597 302.319 29.113 301.722 28.3597C301.124 27.6063 303.368 25.6535 298.878 23.6969C298.878 23.6969 298.579 19.4877 292.439 19.3377C286.3 19.1878 287.946 23.547 286.3 24.6002C284.654 25.6535 284.202 24.0005 282.556 25.05C280.91 26.0996 281.657 28.2061 280.31 28.5096C278.962 28.8095 277.167 27.1565 275.517 28.2097C273.871 29.263 273.872 30.1663 273.121 30.1663C272.371 30.1663 270.875 29.5665 269.979 30.1663C269.079 30.766 268.031 31.5194 268.031 31.5194H305.913C305.913 31.5194 306.361 30.1663 304.715 29.263Z" fill="white"/>
<path opacity="0.8" d="M264.881 10.2389C264.276 9.90616 263.999 10.1841 263.777 9.90616C263.555 9.62822 264.382 8.91144 262.732 8.19099C262.732 8.19099 262.623 6.6404 260.362 6.58554C258.104 6.53069 258.708 8.13614 258.104 8.52379C257.499 8.91144 257.332 8.30071 256.727 8.68835C256.123 9.076 256.396 9.8513 255.901 9.96101C255.405 10.0707 254.743 9.46365 254.138 9.8513C253.534 10.2389 253.534 10.5717 253.257 10.5717C252.98 10.5717 252.43 10.3487 252.099 10.5717C251.768 10.7948 251.382 11.0691 251.382 11.0691H265.321C265.321 11.0691 265.485 10.5717 264.881 10.2389Z" fill="white"/>
<path d="M177.547 113.353C178.628 117.786 182.022 121.421 186.694 124.387C200.128 132.908 224.125 135.885 234.168 136.338C261.49 137.567 295.717 138.913 319.237 122.13C322.252 119.98 324.022 116.923 324.929 113.353H177.547Z" fill="#C6FF00"/>
<path opacity="0.6" d="M177.547 113.353C178.628 117.786 182.022 121.421 186.694 124.387C200.128 132.908 224.125 135.885 234.168 136.338C261.49 137.567 295.717 138.913 319.237 122.13C322.252 119.98 324.022 116.923 324.929 113.353H177.547Z" fill="white"/>
<path d="M229.959 64.3744C229.959 64.3744 245.34 65.9031 253.137 75.4773C253.137 75.4773 261.374 64.3854 276.166 64.6121C280.459 59.4155 283.041 52.7413 283.044 45.4638C283.052 28.8826 269.669 15.432 253.159 15.4283C236.648 15.421 223.255 28.8607 223.251 45.4418C223.251 52.6316 225.764 59.2289 229.955 64.4V64.3744H229.959Z" fill="#C6FF00"/>
<path opacity="0.6" d="M229.959 64.3744C229.959 64.3744 245.34 65.9031 253.137 75.4773C253.137 75.4773 261.374 64.3854 276.166 64.6121C280.459 59.4155 283.041 52.7413 283.044 45.4638C283.052 28.8826 269.669 15.432 253.159 15.4283C236.648 15.421 223.255 28.8607 223.251 45.4418C223.251 52.6316 225.764 59.2289 229.955 64.4V64.3744H229.959Z" fill="white"/>
<path d="M252.627 17.5421L252.11 112.988H254.706L252.627 17.5421Z" fill="#263238"/>
<path d="M253.406 72.5589C253.406 72.5589 258.599 63.1713 267.947 60.3041C267.947 60.3041 258.082 62.6519 253.148 70.7341L253.406 72.5589Z" fill="#263238"/>
<path d="M253.406 45.9648C253.406 45.9648 258.599 36.5771 267.947 33.71C267.947 33.71 258.082 36.0578 253.148 44.1399L253.406 45.9648Z" fill="#263238"/>
<path d="M253.406 59.2619C253.406 59.2619 258.599 49.8742 267.947 47.007C267.947 47.007 258.082 49.3549 253.148 57.437L253.406 59.2619Z" fill="#263238"/>
<path d="M252.638 52.7413C252.638 52.7413 247.627 43.3536 238.611 40.4865C238.611 40.4865 248.13 42.8343 252.889 50.9164L252.638 52.7413Z" fill="#263238"/>
<path d="M252.638 65.7787C252.638 65.7787 247.627 56.3911 238.611 53.5239C238.611 53.5239 248.13 55.8718 252.889 63.9539L252.638 65.7787Z" fill="#263238"/>
<path d="M189.149 70.6755C189.149 70.6755 201.362 71.8897 207.553 79.4927C207.553 79.4927 214.093 70.6829 225.84 70.8657C229.249 66.7405 231.299 61.4415 231.302 55.6596C231.306 42.4906 220.68 31.812 207.571 31.8083C194.458 31.8046 183.825 42.4759 183.821 55.6414C183.821 61.35 185.817 66.5906 189.145 70.6938V70.6719L189.149 70.6755Z" fill="#C6FF00"/>
<path opacity="0.5" d="M189.149 70.6755C189.149 70.6755 201.362 71.8897 207.553 79.4927C207.553 79.4927 214.093 70.6829 225.84 70.8657C229.249 66.7405 231.299 61.4415 231.302 55.6596C231.306 42.4906 220.68 31.812 207.571 31.8083C194.458 31.8046 183.825 42.4759 183.821 55.6414C183.821 61.35 185.817 66.5906 189.145 70.6938V70.6719L189.149 70.6755Z" fill="white"/>
<path d="M207.148 33.4905L206.737 112.988H208.798L207.148 33.4905Z" fill="#263238"/>
<path d="M207.768 77.1778C207.768 77.1778 211.89 69.7247 219.311 67.4464C219.311 67.4464 211.478 69.3115 207.56 75.7296L207.768 77.1778Z" fill="#263238"/>
<path d="M207.768 56.0583C207.768 56.0583 211.89 48.6052 219.311 46.3268C219.311 46.3268 211.478 48.1919 207.56 54.6101L207.768 56.0583Z" fill="#263238"/>
<path d="M207.768 66.6162C207.768 66.6162 211.89 59.1631 219.311 56.8848C219.311 56.8848 211.478 58.7499 207.56 65.168L207.768 66.6162Z" fill="#263238"/>
<path d="M207.156 61.4415C207.156 61.4415 203.176 53.9884 196.016 51.71C196.016 51.71 203.576 53.5751 207.356 59.9933L207.156 61.4415Z" fill="#263238"/>
<path d="M207.156 71.7946C207.156 71.7946 203.176 64.3415 196.016 62.0632C196.016 62.0632 203.576 63.9283 207.356 70.3464L207.156 71.7946Z" fill="#263238"/>
<path d="M278.54 70.6755C278.54 70.6755 290.753 71.8897 296.944 79.4927C296.944 79.4927 303.484 70.6829 315.232 70.8657C318.64 66.7405 320.69 61.4415 320.694 55.6596C320.697 42.4906 310.072 31.812 296.962 31.8083C283.849 31.8046 273.216 42.4759 273.212 55.6414C273.212 61.35 275.208 66.5906 278.536 70.6938V70.6719L278.54 70.6755Z" fill="#C6FF00"/>
<path opacity="0.5" d="M278.54 70.6755C278.54 70.6755 290.753 71.8897 296.944 79.4927C296.944 79.4927 303.484 70.6829 315.232 70.8657C318.64 66.7405 320.69 61.4415 320.694 55.6596C320.697 42.4906 310.072 31.812 296.962 31.8083C283.849 31.8046 273.216 42.4759 273.212 55.6414C273.212 61.35 275.208 66.5906 278.536 70.6938V70.6719L278.54 70.6755Z" fill="white"/>
<path d="M296.54 33.4905L296.125 112.988H298.189L296.54 33.4905Z" fill="#263238"/>
<path d="M297.159 77.1778C297.159 77.1778 301.281 69.7247 308.702 67.4464C308.702 67.4464 300.869 69.3115 296.951 75.7296L297.159 77.1778Z" fill="#263238"/>
<path d="M297.159 56.0583C297.159 56.0583 301.281 48.6052 308.702 46.3268C308.702 46.3268 300.869 48.1919 296.951 54.6101L297.159 56.0583Z" fill="#263238"/>
<path d="M297.159 66.6162C297.159 66.6162 301.281 59.1631 308.702 56.8848C308.702 56.8848 300.869 58.7499 296.951 65.168L297.159 66.6162Z" fill="#263238"/>
<path d="M296.547 61.4415C296.547 61.4415 292.567 53.9884 285.408 51.71C285.408 51.71 292.967 53.5751 296.747 59.9933L296.547 61.4415Z" fill="#263238"/>
<path d="M296.547 71.7946C296.547 71.7946 292.567 64.3415 285.408 62.0632C285.408 62.0632 292.967 63.9283 296.747 70.3464L296.547 71.7946Z" fill="#263238"/>
<path d="M321.702 115.866L310.075 114.465L316.586 113.299L305.64 114.315C305.01 113.507 316.586 113.299 316.586 113.299H307.748L307.049 112.366C306.35 111.433 304.027 113.299 302.865 113.299C301.703 113.299 302.865 112.366 304.26 110.029C305.654 107.692 301.412 110.505 301.412 110.505C301.412 110.505 301.703 109.331 300.771 108.629C299.843 107.926 298.444 111.664 298.444 111.664C298.444 111.664 297.425 110.234 296.117 109.795C294.81 109.36 295.189 112.132 295.189 112.132C295.189 112.132 291.467 110.263 289.839 109.565C288.212 108.866 290.539 111.433 292.166 112.366C293.794 113.299 291.005 113.068 289.61 113.068H277.983C276.821 113.068 265.889 113.302 265.889 113.302L265.656 111.902C265.423 110.501 262.168 112.136 261.239 111.668C260.311 111.199 261.239 110.501 259.844 108.632C258.45 106.763 256.822 111.199 254.728 111.668H251.24C251.24 111.668 251.24 110.267 250.078 109.1C248.916 107.934 249.149 110.969 248.217 110.969C247.285 110.969 247.518 110.501 245.89 109.802C244.263 109.1 245.424 111.437 244.729 111.437C244.033 111.437 241.939 110.036 240.312 110.271C238.684 110.505 242.405 112.373 242.405 112.373C242.405 112.373 240.545 112.607 239.15 112.841C237.755 113.076 235.894 113.544 232.872 113.544C229.85 113.544 228.917 113.778 223.805 113.076C218.688 112.373 218.455 112.841 218.455 112.841C218.455 112.841 217.989 112.139 217.061 112.139C216.132 112.139 215.433 112.841 214.504 112.373C213.576 111.905 214.504 112.373 213.805 111.671C213.106 110.969 211.944 113.072 210.783 112.604C209.621 112.136 212.177 109.1 211.944 108.402C211.711 107.7 210.084 108.636 209.155 109.802C208.226 110.969 207.993 109.802 206.828 108.402C205.666 107.001 205.433 110.505 205.433 110.505C205.433 110.505 204.734 108.168 203.106 107.937C201.479 107.703 203.106 110.04 202.407 112.607C201.708 115.175 199.618 111.207 196.825 111.207C194.032 111.207 199.381 114.476 199.381 114.476L185.431 115.178L190.314 115.646L183.57 117.515L201.242 119.15L193.336 116.115H209.148L203.336 117.047L216.358 117.281L210.08 119.15L229.846 116.813L220.546 116.345L247.518 114.476L233.567 116.813L286.584 115.412L272.167 116.345C272.167 116.345 276.155 116.433 281.723 116.531L269.145 117.515L291.467 118.682L287.979 117.047L307.785 116.835L310.767 117.515L303.327 119.618L320.534 118.916L314.951 117.515L321.695 115.88L321.702 115.866Z" fill="#C6FF00"/>
<path d="M259.626 125.561C259.626 126.256 251.112 126.819 240.607 126.819C230.101 126.819 221.587 126.256 221.587 125.561C221.587 124.866 230.101 124.303 240.607 124.303C251.112 124.303 259.626 124.866 259.626 125.561Z" fill="#263238"/>
<path d="M259.637 109.386C259.637 109.386 260.067 112.026 260.008 113.419C259.946 114.813 259.407 117.23 259.91 117.687C260.413 118.144 260.7 117.46 261.622 116.279C262.543 115.098 263.97 112.194 264.535 111.174C265.099 110.154 265.922 109.228 265.427 108.596C264.932 107.963 263.643 107.645 262.951 107.616C262.259 107.586 260.609 107.513 260.609 107.513L259.637 109.382V109.386Z" fill="#263238" stroke="#263238" stroke-miterlimit="10"/>
<path d="M263.49 111.218C262.357 113.767 260.525 116.447 259.79 117.486C259.823 117.57 259.859 117.643 259.91 117.691C260.413 118.148 260.7 117.464 261.622 116.283C262.543 115.102 263.97 112.198 264.535 111.177C265.099 110.157 265.922 109.232 265.427 108.599C265.267 108.394 265.023 108.23 264.746 108.087C264.495 108.815 264.101 109.839 263.49 111.218Z" fill="white" stroke="#263238" stroke-miterlimit="10" stroke-linecap="round"/>
<path d="M225.017 117.12C225.017 117.12 225.964 119.932 226.03 120.817C226.092 121.703 226.153 122.591 225.141 122.507C224.129 122.427 222.796 122.16 222.461 122.251C222.126 122.342 220.993 122.474 219.744 122.189C218.495 121.904 217.119 121.468 216.693 121.223C216.267 120.978 216.121 120.115 216.791 119.932C217.461 119.75 220.018 119.223 220.746 118.93C221.474 118.638 222.752 117.384 222.752 117.384L225.021 117.12H225.017Z" fill="#263238" stroke="#263238" stroke-miterlimit="10"/>
<path d="M226.048 121.084C225.345 121.169 224.085 121.319 222.698 121.465C220.597 121.684 218.375 121.121 217.629 120.693C217.188 120.441 216.817 120.207 216.533 120.068C216.176 120.379 216.336 121.019 216.693 121.223C217.119 121.468 218.499 121.9 219.744 122.189C220.99 122.478 222.126 122.346 222.461 122.251C222.796 122.156 224.129 122.423 225.141 122.507C226.051 122.58 226.092 121.874 226.048 121.084Z" fill="white" stroke="#263238" stroke-miterlimit="10" stroke-linecap="round"/>
<path d="M235.341 85.0514C235.341 85.0514 233.662 86.7703 230.917 88.9608C228.174 91.1514 222.996 94.0112 222.996 94.0112C222.996 94.0112 226.383 98.6009 226.492 101.366C226.601 104.13 224.548 115.756 224.919 117.179C224.919 117.179 223.779 118.287 223.04 117.526C222.304 116.762 220.465 100.696 219.289 98.3997C218.113 96.1031 217.286 92.6398 217.756 91.572C218.656 89.524 224.482 83.4643 227.195 81.7381C229.908 80.012 231.605 78.5784 231.605 78.5784" fill="#263238"/>
<path d="M235.341 85.0514C235.341 85.0514 233.662 86.7703 230.917 88.9608C228.174 91.1514 222.996 94.0112 222.996 94.0112C222.996 94.0112 226.383 98.6009 226.492 101.366C226.601 104.13 224.548 115.756 224.919 117.179C224.919 117.179 223.779 118.287 223.04 117.526C222.304 116.762 220.465 100.696 219.289 98.3997C218.113 96.1031 217.286 92.6398 217.756 91.572C218.656 89.524 224.482 83.4643 227.195 81.7381C229.908 80.012 231.605 78.5784 231.605 78.5784" stroke="#263238" stroke-miterlimit="10"/>
<path d="M229.169 58.8011C229.169 58.8011 231.124 56.8262 233.28 56.6215C235.436 56.4167 239.084 57.1554 240.144 57.192C241.204 57.2285 243.516 57.4955 243.636 57.8502C243.756 58.205 244.783 61.2732 245.147 65.0912C245.512 68.9092 245.224 75.9344 245.224 75.9344L243.574 75.704C243.574 75.704 243.359 71.8714 241.779 68.3314C240.199 64.7913 239.565 61.7194 239.565 61.7194C239.565 61.7194 234.664 62.3228 232.351 62.0558" fill="#C6FF00"/>
<path d="M229.169 58.8011C229.169 58.8011 231.124 56.8262 233.28 56.6215C235.436 56.4167 239.084 57.1554 240.144 57.192C241.204 57.2285 243.516 57.4955 243.636 57.8502C243.756 58.205 244.783 61.2732 245.147 65.0912C245.512 68.9092 245.224 75.9344 245.224 75.9344L243.574 75.704C243.574 75.704 243.359 71.8714 241.779 68.3314C240.199 64.7913 239.565 61.7194 239.565 61.7194C239.565 61.7194 234.664 62.3228 232.351 62.0558" stroke="#263238" stroke-miterlimit="10"/>
<path d="M245.228 75.9417C245.228 75.9417 245.515 68.9165 245.151 65.0985C244.787 61.2806 243.76 58.2086 243.64 57.8575C243.523 57.5138 241.335 57.2505 240.239 57.2029C240.217 58.4756 240.071 60.2456 239.536 61.734C239.558 61.734 239.572 61.7304 239.572 61.7304C239.572 61.7304 240.21 64.8023 241.786 68.3423C243.367 71.8824 243.582 75.715 243.582 75.715C243.582 75.715 242.125 76.9949 241.75 77.2802C241.375 77.5654 242.46 78.9332 242.46 78.9332C242.46 78.9332 242.842 80.5386 243.687 80.7251C244.536 80.9117 245.096 80.2497 245.096 80.2497C245.096 80.2497 245.424 79.8219 245.799 78.5931C246.174 77.3643 245.228 75.949 245.228 75.949V75.9417Z" fill="white" stroke="#263238" stroke-miterlimit="10"/>
<path d="M229.871 50.1411C229.871 50.1411 229.562 51.9953 229.871 53.129C230.181 54.2626 231.823 56.2228 231.616 57.1481C231.412 58.077 228.535 59.7263 227.716 59.3131C226.893 58.8998 226.689 53.9518 226.689 53.9518C226.689 53.9518 228.535 50.6531 229.871 50.1375V50.1411Z" fill="white" stroke="#263238" stroke-miterlimit="10"/>
<path d="M230.887 54.9209C230.887 54.9209 227.872 56.6068 226.128 58.2562C224.384 59.9055 224.176 65.0583 224.795 67.7389C225.411 70.4195 226.889 73.8901 227.668 75.5723C228.986 78.4102 227.93 81.7784 229.132 84.6272C231.364 89.9153 238.738 87.0226 239.518 82.2611C239.966 79.511 237.912 77.101 237.628 74.4387C237.318 71.5532 236.797 61.4415 235.771 58.6584C234.744 55.8754 232.548 54.9831 230.891 54.9173L230.887 54.9209Z" fill="#263238" stroke="#263238" stroke-miterlimit="10"/>
<path d="M226.128 58.2562C227.872 56.6068 230.887 54.9209 230.887 54.9209C232.544 54.9867 234.74 55.8754 235.767 58.6621C236.794 61.4451 237.315 71.5569 237.624 74.4423C237.741 75.5248 238.148 76.5634 238.56 77.602C236.539 78.2566 232.377 79.394 228.404 79.1782C228.342 77.9385 228.196 76.7134 227.665 75.5723C226.882 73.8901 225.407 70.4195 224.792 67.7389C224.176 65.0583 224.38 59.9055 226.124 58.2562H226.128Z" fill="#C6FF00" stroke="#263238" stroke-miterlimit="10"/>
<path d="M227.708 74.0766C227.708 74.0766 231.244 76.8889 234.631 76.8889" stroke="#263238" stroke-miterlimit="10" stroke-linecap="round"/>
<path d="M230.804 77.0352C230.804 77.0352 232.865 78.0701 235.519 77.6276" stroke="#263238" stroke-miterlimit="10" stroke-linecap="round"/>
<path d="M232.941 57.8868C232.941 57.8868 234.227 60.465 233.713 62.6593C233.2 64.8498 231.273 68.2034 230.887 69.2347C230.501 70.2659 229.474 72.4602 229.088 72.4602C228.702 72.4602 225.363 72.4602 221.514 71.5569C217.661 70.6536 210.601 67.6877 210.601 67.6877L211.242 66.3968C211.242 66.3968 215.48 67.5561 219.46 67.1721C223.441 66.7844 226.652 67.1721 226.652 67.1721C226.652 67.1721 227.679 62.1436 228.706 59.9494" fill="#C6FF00"/>
<path d="M232.941 57.8868C232.941 57.8868 234.227 60.465 233.713 62.6593C233.2 64.8498 231.273 68.2034 230.887 69.2347C230.501 70.2659 229.474 72.4602 229.088 72.4602C228.702 72.4602 225.363 72.4602 221.514 71.5569C217.661 70.6536 210.601 67.6877 210.601 67.6877L211.242 66.3968C211.242 66.3968 215.48 67.5561 219.46 67.1721C223.441 66.7844 226.652 67.1721 226.652 67.1721C226.652 67.1721 227.679 62.1436 228.706 59.9494" stroke="#263238" stroke-miterlimit="10"/>
<path d="M242.456 78.9259L244.667 79.1709C244.667 79.1709 245.26 78.871 243.476 77.6752" fill="white"/>
<path d="M242.456 78.9259L244.667 79.1709C244.667 79.1709 245.26 78.871 243.476 77.6752" stroke="#263238" stroke-miterlimit="10"/>
<path d="M238.72 82.5171C238.72 82.5171 239.361 84.8393 239.875 88.3209C240.388 91.8024 240.261 97.7341 240.261 97.7341C240.261 97.7341 245.909 97.0905 248.348 98.3778C250.788 99.6687 259.775 107.275 261.188 107.663C261.188 107.663 261.574 109.21 260.547 109.47C259.52 109.729 244.754 103.278 242.187 103.15C239.62 103.022 236.036 101.973 235.254 100.444C234.722 99.4054 231.914 91.1587 231.787 87.9369C231.659 84.7113 231.273 82.5208 231.273 82.5208" fill="#263238"/>
<path d="M238.72 82.5171C238.72 82.5171 239.361 84.8393 239.875 88.3209C240.388 91.8024 240.261 97.7341 240.261 97.7341C240.261 97.7341 245.909 97.0905 248.348 98.3778C250.788 99.6687 259.775 107.275 261.188 107.663C261.188 107.663 261.574 109.21 260.547 109.47C259.52 109.729 244.754 103.278 242.187 103.15C239.62 103.022 236.036 101.973 235.254 100.444C234.722 99.4054 231.914 91.1587 231.787 87.9369C231.659 84.7113 231.273 82.5208 231.273 82.5208" stroke="#263238" stroke-miterlimit="10"/>
<path d="M234.645 83.2485L236.841 94.0515" stroke="white" stroke-miterlimit="10" stroke-linecap="round"/>
<path d="M234.045 80.29L234.431 82.1953" stroke="white" stroke-miterlimit="10" stroke-linecap="round"/>
<path d="M234.929 79.9937L237.726 93.7552" stroke="white" stroke-miterlimit="10" stroke-linecap="round"/>
<path d="M235.254 100.44C234.98 99.9028 234.099 97.4525 233.294 94.7573C236.113 95.0096 238.629 94.3221 240.246 93.7004C240.297 95.9129 240.261 97.7341 240.261 97.7341C240.261 97.7341 245.909 97.0905 248.348 98.3778C250.788 99.6687 259.775 107.275 261.188 107.663C261.188 107.663 261.574 109.21 260.547 109.47C259.52 109.729 244.754 103.278 242.187 103.15C239.62 103.022 236.036 101.973 235.254 100.444V100.44Z" fill="white" stroke="#263238" stroke-miterlimit="10"/>
<path d="M224.919 117.175C224.919 117.175 223.779 118.283 223.04 117.522C222.304 116.758 220.465 100.693 219.289 98.3961C218.113 96.0994 217.286 92.6362 217.756 91.5683C217.986 91.0454 218.539 90.2591 219.282 89.3485C220.997 91.1039 223.277 92.4387 224.562 93.1153C223.626 93.6602 222.993 94.0112 222.993 94.0112C222.993 94.0112 226.379 98.6009 226.488 101.366C226.598 104.13 224.544 115.756 224.915 117.179L224.919 117.175Z" fill="white" stroke="#263238" stroke-miterlimit="10"/>
<path d="M227.253 64.5353C226.889 65.9982 226.649 67.1721 226.649 67.1721C226.649 67.1721 223.437 66.7844 219.457 67.1721C215.477 67.5597 211.263 65.5081 211.263 65.5081L210.885 65.0949C210.688 64.6158 210.357 63.8003 210.215 63.3687C210.043 62.8567 208.656 63.6503 208.656 63.6503C208.656 63.6503 207.371 63.0103 206.857 63.8661C206.347 64.7218 206.715 66.3931 206.715 66.3931C206.715 66.3931 206.671 66.7661 207.866 67.6219C208.78 68.2765 210.189 68.3643 210.957 68.2729C211.948 68.6861 217.971 70.7267 221.511 71.5569C225.363 72.4602 228.702 72.4602 229.085 72.4602C229.467 72.4602 230.498 70.2696 230.884 69.2347C231.011 68.8946 231.306 68.2985 231.663 67.578C230.643 66.6491 229.154 65.4898 227.25 64.5353H227.253Z" fill="white" stroke="#263238" stroke-miterlimit="10"/>
<path d="M224.129 44.2167C224.129 44.2167 223.098 44.1655 222.891 42.9733C222.683 41.7811 224.799 40.8997 225.163 41.1594C225.523 41.4191 225.163 41.9896 225.163 41.9896C225.163 41.9896 226.401 41.057 226.507 41.4702C226.609 41.8835 226.507 42.092 226.507 42.092C226.507 42.092 229.139 41.7811 230.585 42.454C232.031 43.1269 233.786 45.0469 233.116 47.4313C232.446 49.8157 231.051 51.838 230.123 52.0428C229.194 52.2513 227.85 51.8344 227.592 51.2639C227.333 50.6934 227.748 50.6934 226.714 49.8632C225.68 49.0331 224.497 47.7385 225.01 46.6486C225.527 45.5588 224.802 44.3154 224.132 44.213L224.129 44.2167Z" fill="#263238" stroke="#263238" stroke-miterlimit="10" stroke-linecap="round"/>
<path d="M223.819 43.7523C223.819 43.7523 222.942 44.6848 222.683 46.0855C222.425 47.4861 222.891 48.0566 222.476 48.6271C222.064 49.1976 221.132 49.8705 221.496 50.2874C221.856 50.7007 222.734 50.9091 222.734 50.9091C222.734 50.9091 222.803 52.1562 223.164 52.9827C223.524 53.8128 223.819 55.4183 224.799 55.3122C225.778 55.2098 228.258 53.6519 228.411 52.7742C228.568 51.8929 228.36 50.7519 228.36 50.7519C228.36 50.7519 229.445 48.8356 229.081 48.0054C228.721 47.1753 227.686 47.7458 227.377 48.1627C227.067 48.5796 227.22 49.3037 226.707 48.7844C226.19 48.2651 226.499 47.8006 226.19 47.5922C225.88 47.3837 225.52 46.9193 225.931 46.3488C226.343 45.7783 227.016 44.9481 226.292 44.2752C225.567 43.6023 224.329 43.7047 223.816 43.7559L223.819 43.7523Z" fill="white" stroke="#263238" stroke-miterlimit="10" stroke-linecap="round"/>
<path d="M223.943 48.3016C223.943 48.5869 223.841 48.8209 223.717 48.8209C223.593 48.8209 223.491 48.5869 223.491 48.3016C223.491 48.0164 223.593 47.7823 223.717 47.7823C223.841 47.7823 223.943 48.0164 223.943 48.3016Z" fill="#263238"/>
<path d="M223.295 46.8059C223.295 46.8059 224.005 46.2208 224.526 47.2594" stroke="#263238" stroke-miterlimit="10" stroke-linecap="round"/>
<path d="M223.481 51.8563C223.481 51.8563 224.562 51.9331 224.719 51.1578" stroke="#263238" stroke-miterlimit="10" stroke-linecap="round"/>
<path d="M297.162 129.203C297.162 130.106 286.405 130.838 273.14 130.838C259.874 130.838 249.117 130.106 249.117 129.203C249.117 128.3 259.874 127.568 273.14 127.568C286.405 127.568 297.162 128.3 297.162 129.203Z" fill="#263238"/>
<path d="M263.643 84.5212C263.643 84.5212 258.77 92.6399 257.736 95.5545C256.622 98.6923 254.524 99.8881 254.419 103.154C254.109 112.732 248.752 121.64 248.199 122.723C247.645 123.805 246.229 123.765 244.572 123.14C242.915 122.514 240.013 121.787 239.907 122.514C239.805 123.242 241.772 125.221 242.912 125.846C244.051 126.471 245.606 126.574 246.229 127.199C246.852 127.824 247.784 128.655 248.924 128.344C250.063 128.033 250.686 124.076 251.72 122.514C252.758 120.953 255.762 116.166 258.042 113.043C260.322 109.919 260.22 103.465 260.529 102.945C260.839 102.426 265.503 97.8438 267.058 95.6606C268.613 93.4737 269.545 90.2481 269.545 90.2481C269.545 90.2481 269.961 88.6866 269.545 86.7081C269.13 84.7296 267.473 82.5427 263.639 84.5212H263.643Z" fill="#263238" stroke="#263238" stroke-linecap="round" stroke-linejoin="round"/>
<path d="M270.277 59.2289C270.277 59.2289 272.389 60.337 273.584 62.1802C274.778 64.0233 277.429 69.3224 277.808 70.0173C278.358 71.0303 277.899 71.5861 276.799 72.2298C276.293 72.526 271.381 74.6288 270.372 75.0896C269.363 75.5504 268.26 75.6418 268.26 75.6418L267.892 73.9815L272.852 69.8308C272.852 69.8308 272.025 68.8177 271.29 66.4187C270.554 64.0197 267.892 60.7027 270.281 59.2253L270.277 59.2289Z" fill="white" stroke="#263238" stroke-linecap="round" stroke-linejoin="round"/>
<path d="M271.654 48.3492C271.654 48.3492 273.584 48.1663 274.225 49.7316C274.866 51.2968 274.775 53.5129 274.134 56.2777C273.489 59.0461 274.684 61.4415 275.601 61.8108C276.519 62.1802 277.254 61.9023 277.254 61.9023L276.796 59.8726C276.796 59.8726 278.172 61.9937 281.02 62.7324C283.867 63.4711 288.641 61.6243 290.204 59.5032C291.766 57.3821 291.489 54.8917 290.939 55.4439C290.389 55.9961 288 56.6434 286.165 54.4309C284.33 52.2183 283.594 48.6198 281.85 47.2374C280.106 45.8551 275.791 46.7766 275.791 46.7766C275.791 46.7766 278.361 45.7636 276.894 45.7636C275.426 45.7636 273.22 46.2244 271.661 48.3455L271.654 48.3492Z" fill="#263238" stroke="#263238" stroke-linecap="round" stroke-linejoin="round"/>
<path d="M285.896 61.5987C286.475 61.4012 287.017 61.1233 287.498 60.7539" stroke="white" stroke-width="0.75" stroke-miterlimit="10" stroke-linecap="round"/>
<path d="M273.963 48.3492C273.963 48.3492 275.015 47.029 276.461 49.801C277.906 52.5731 276.985 56.53 278.431 59.3021C279.439 61.2403 282.119 62.2094 284.585 61.8949" stroke="white" stroke-width="0.75" stroke-miterlimit="10" stroke-linecap="round"/>
<path d="M279.738 49.322C280.889 51.0225 280.634 55.1074 282.112 57.4553C283.689 59.964 287.371 60.8856 290.786 57.3236" stroke="white" stroke-width="0.75" stroke-miterlimit="10" stroke-linecap="round"/>
<path d="M277.506 47.9798C277.852 48.0603 278.205 48.1773 278.544 48.3455" stroke="white" stroke-width="0.75" stroke-miterlimit="10" stroke-linecap="round"/>
<path d="M264.99 54.7527C264.99 54.7527 266.028 56.6251 266.235 57.565C266.443 58.5012 266.545 59.7519 264.578 61.5219C262.608 63.2919 260.952 65.8921 261.469 67.5597C261.986 69.2237 263.231 72.8698 263.646 75.8869C264.061 78.9039 263.129 83.4862 263.337 85.2562C263.544 87.0263 265.929 90.0433 269.141 91.6049C272.353 93.1665 275.463 89.1071 275.776 86.1924C276.089 83.2778 273.806 79.8438 272.564 78.2822C271.319 76.7207 271.009 76.9291 271.009 75.9929C271.009 75.0567 272.772 64.9596 272.149 61.3171C271.526 57.6747 269.87 56.9469 269.556 55.9047C269.247 54.8624 268.311 50.3862 268.311 50.3862L264.994 54.7564L264.99 54.7527Z" fill="#263238" stroke="#263238" stroke-linecap="round" stroke-linejoin="round"/>
<path d="M270.951 57.9636C270.339 56.9798 269.727 56.4861 269.553 55.8937C269.243 54.8514 268.307 50.3752 268.307 50.3752L264.99 54.7454C264.99 54.7454 266.028 56.6178 266.235 57.5577C266.403 58.322 266.505 59.2911 265.471 60.5821L270.951 57.9599V57.9636Z" fill="white" stroke="#263238" stroke-linecap="round" stroke-linejoin="round"/>
<path d="M261.257 47.2557C261.257 47.2557 261.05 47.8811 261.155 48.5064C261.257 49.1318 261.673 49.3402 261.155 49.8595C260.638 50.3789 259.808 50.7958 260.223 51.1103C260.638 51.4248 261.469 51.838 261.469 51.838C261.469 51.838 261.778 54.4418 262.193 55.1696C262.608 55.8974 264.058 55.6889 264.99 55.272C265.922 54.8551 268.1 53.7104 268.617 52.6682C269.134 51.6259 269.862 48.9197 269.655 47.5666C269.447 46.2135 266.13 44.7543 264.265 44.7543C262.401 44.7543 261.053 45.7966 261.261 47.2521L261.257 47.2557Z" fill="white" stroke="#263238" stroke-linecap="round" stroke-linejoin="round"/>
<path d="M262.652 49.9473C262.803 49.9473 262.925 49.6673 262.925 49.322C262.925 48.9766 262.803 48.6966 262.652 48.6966C262.501 48.6966 262.379 48.9766 262.379 49.322C262.379 49.6673 262.501 49.9473 262.652 49.9473Z" fill="#263238"/>
<path d="M261.873 47.892C261.873 47.892 262.729 47.1899 263.348 48.437" stroke="#263238" stroke-miterlimit="10" stroke-linecap="round"/>
<path d="M262.466 52.5548C262.466 52.5548 263.766 52.6462 263.952 51.7173" stroke="#263238" stroke-miterlimit="10" stroke-linecap="round"/>
<path d="M264.444 45.482C264.444 45.482 263.814 47.2191 265.387 49.1098C266.96 51.0005 269.156 49.7425 269.156 49.7425C269.156 49.7425 267.291 52.5987 268.617 52.6718C269.942 52.7413 271.636 51.5308 271.65 48.3492C271.668 45.1675 268.369 42.8014 264.44 45.4857L264.444 45.482Z" fill="#263238" stroke="#263238" stroke-linecap="round" stroke-linejoin="round"/>
<path d="M261.465 45.2809C261.465 45.2809 255.038 45.9063 255.766 46.5316C256.491 47.157 259.499 47.2594 261.261 47.2594C263.023 47.2594 265.059 46.5133 265.059 46.5133L261.469 45.2846L261.465 45.2809Z" fill="#C6FF00" stroke="#263238" stroke-linecap="round" stroke-linejoin="round"/>
<path d="M261.465 45.2809L271.829 49.3402C271.829 49.3402 272.968 46.1147 272.553 44.0302C272.138 41.9493 269.341 40.0733 266.541 40.0733C263.741 40.0733 261.982 41.5288 261.461 45.2773L261.465 45.2809Z" fill="#C6FF00" stroke="#263238" stroke-linecap="round" stroke-linejoin="round"/>
<path d="M268.307 47.7787L268.824 39.9709L269.757 40.2817L269.24 48.0895L268.307 47.7787Z" fill="white" stroke="#263238" stroke-linecap="round" stroke-linejoin="round"/>
<path d="M270.794 49.4426C270.794 48.2358 269.819 47.2557 268.617 47.2557C267.415 47.2557 266.439 48.2358 266.439 49.4426C266.439 50.6495 267.415 51.6296 268.617 51.6296C269.819 51.6296 270.794 50.6495 270.794 49.4426Z" fill="white" stroke="#263238" stroke-linecap="round" stroke-linejoin="round"/>
<path d="M269.793 49.4426C269.793 48.7917 269.269 48.2651 268.62 48.2651C267.972 48.2651 267.448 48.7917 267.448 49.4426C267.448 50.0936 267.972 50.6202 268.62 50.6202C269.269 50.6202 269.793 50.0936 269.793 49.4426Z" fill="white" stroke="#263238" stroke-linecap="round" stroke-linejoin="round"/>
<path d="M269.24 87.8528C269.24 87.8528 270.379 96.2859 271.417 100.967C272.455 105.652 274.735 110.022 275.769 110.545C276.807 111.064 282.298 111.898 286.548 112.523C290.797 113.149 297.64 113.566 297.64 113.566C297.64 113.566 298.572 116.791 298.572 118.144C298.572 119.497 298.055 121.161 298.881 121.267C299.712 121.37 300.953 118.561 301.266 117.31C301.576 116.06 301.682 113.043 301.991 111.898C302.301 110.753 302.199 110.545 300.851 110.442C299.504 110.34 298.364 110.442 297.432 110.234C296.5 110.026 291.318 109.089 288.831 107.63C286.344 106.175 281.784 106.069 281.162 106.069H279.399C279.399 106.069 278.569 99.197 278.569 96.6992C278.569 94.2014 278.671 88.8914 277.12 85.355C275.565 81.815 273.802 80.4618 273.285 80.4618" fill="#263238"/>
<path d="M269.24 87.8528C269.24 87.8528 270.379 96.2859 271.417 100.967C272.455 105.652 274.735 110.022 275.769 110.545C276.807 111.064 282.298 111.898 286.548 112.523C290.797 113.149 297.64 113.566 297.64 113.566C297.64 113.566 298.572 116.791 298.572 118.144C298.572 119.497 298.055 121.161 298.881 121.267C299.712 121.37 300.953 118.561 301.266 117.31C301.576 116.06 301.682 113.043 301.991 111.898C302.301 110.753 302.199 110.545 300.851 110.442C299.504 110.34 298.364 110.442 297.432 110.234C296.5 110.026 291.318 109.089 288.831 107.63C286.344 106.175 281.784 106.069 281.162 106.069H279.399C279.399 106.069 278.569 99.197 278.569 96.6992C278.569 94.2014 278.671 88.8914 277.12 85.355C275.565 81.815 273.802 80.4618 273.285 80.4618" stroke="#263238" stroke-linecap="round" stroke-linejoin="round"/>
<path d="M285.178 109.375L286.639 109.733" stroke="white" stroke-miterlimit="10" stroke-linecap="round"/>
<path d="M275.15 86.4594C275.969 88.3538 276.766 90.7126 276.766 92.7203C276.766 96.8638 277.797 106.036 277.797 107.221C277.797 108.405 278.828 107.813 278.828 107.813L283.547 108.976" stroke="white" stroke-miterlimit="10" stroke-linecap="round"/>
<path d="M273.38 82.9523C273.38 82.9523 273.882 83.7824 274.498 85.0441" stroke="white" stroke-miterlimit="10" stroke-linecap="round"/>
<path d="M300.851 110.439C299.504 110.336 298.364 110.439 297.432 110.23C296.5 110.022 291.318 109.086 288.831 107.626C288.39 107.367 287.88 107.155 287.341 106.972C287.487 108.073 287.513 109.407 287.072 110.541C286.766 111.324 286.464 111.96 286.191 112.465C286.314 112.483 286.435 112.501 286.555 112.52C290.804 113.145 297.647 113.562 297.647 113.562C297.647 113.562 298.579 116.787 298.579 118.141C298.579 119.494 298.062 121.158 298.889 121.264C299.719 121.366 300.961 118.557 301.274 117.307C301.583 116.056 301.689 113.039 301.998 111.894C302.308 110.75 302.206 110.541 300.859 110.439H300.851Z" fill="white" stroke="#263238" stroke-linecap="round" stroke-linejoin="round"/>
<path d="M300.851 110.439C300.502 110.413 300.167 110.399 299.843 110.391C299.89 110.596 299.919 110.793 299.919 110.958C299.919 111.792 299.296 113.247 298.572 113.247C297.847 113.247 297.64 113.558 297.64 113.558C297.64 113.558 298.572 116.784 298.572 118.137C298.572 119.49 298.055 121.154 298.881 121.26C299.712 121.362 300.953 118.554 301.266 117.303C301.576 116.052 301.682 113.035 301.991 111.891C302.301 110.746 302.199 110.538 300.851 110.435V110.439Z" fill="#C6FF00" stroke="#263238" stroke-linecap="round" stroke-linejoin="round"/>
<path d="M301.995 111.898C302.253 110.94 302.221 110.64 301.416 110.505C301.219 112.022 300.647 116.049 300.072 117.917C299.708 119.11 298.961 120.024 298.419 120.572C298.448 120.96 298.568 121.223 298.881 121.264C299.712 121.366 300.953 118.557 301.266 117.307C301.576 116.056 301.682 113.039 301.991 111.894L301.995 111.898Z" fill="#263238" stroke="#263238" stroke-miterlimit="10"/>
<path d="M252.441 113.321C250.752 118.338 248.541 122.05 248.199 122.726C247.645 123.809 246.229 123.769 244.572 123.143C242.915 122.518 240.013 121.79 239.907 122.518C239.805 123.246 241.772 125.224 242.912 125.85C244.051 126.475 245.606 126.577 246.229 127.203C246.852 127.828 247.784 128.658 248.924 128.347C250.063 128.037 250.686 124.08 251.724 122.518C252.565 121.253 254.703 117.863 256.695 114.959C254.823 114.728 253.406 114.008 252.441 113.321Z" fill="white" stroke="#263238" stroke-linecap="round" stroke-linejoin="round"/>
<path d="M248.924 128.344C249.503 128.186 249.947 127.086 250.38 125.839C248.101 125.729 248.093 124.628 248.093 123.867C248.093 123.604 247.988 123.37 247.846 123.176C247.158 123.772 245.949 123.659 244.568 123.14C242.912 122.514 240.009 121.787 239.904 122.514C239.802 123.242 241.768 125.221 242.908 125.846C244.048 126.471 245.603 126.574 246.225 127.199C246.848 127.824 247.78 128.655 248.92 128.344H248.924Z" fill="#C6FF00" stroke="#263238" stroke-linecap="round" stroke-linejoin="round"/>
<path d="M248.924 128.344C249.12 128.289 249.299 128.121 249.47 127.883C247.711 127.44 247.361 126.727 246.437 126.263C245.399 125.744 244.157 125.846 242.81 124.599C241.906 123.761 240.912 122.785 240.355 122.233C240.1 122.269 239.933 122.353 239.907 122.518C239.805 123.246 241.772 125.224 242.912 125.85C244.051 126.475 245.606 126.577 246.229 127.203C246.852 127.828 247.784 128.658 248.924 128.347V128.344Z" fill="#263238" stroke="#263238" stroke-miterlimit="10"/>
<path d="M273.194 79.127C272.965 78.8052 272.75 78.5163 272.557 78.2749C271.312 76.7134 271.002 76.9218 271.002 75.9856C271.002 75.0494 272.764 64.9522 272.142 61.3098C271.698 58.7023 270.722 57.5906 270.088 56.786C269.287 57.3053 267.794 58.2744 266.203 59.2765C265.999 59.9165 265.536 60.6552 264.575 61.5183C262.605 63.2883 260.948 65.8884 261.465 67.5561C261.982 69.22 263.227 72.8661 263.643 75.8832C263.832 77.2583 263.741 78.9588 263.606 80.5679C265.889 80.4911 269.341 80.1766 273.194 79.1307V79.127Z" fill="#C6FF00" stroke="#263238" stroke-linecap="round" stroke-linejoin="round"/>
<path d="M270.725 76.8889C270.725 76.8889 267.779 78.6626 266.159 78.9588" stroke="#263238" stroke-miterlimit="10" stroke-linecap="round"/>
<path d="M266.749 77.4813C266.749 77.4813 268.387 77.1997 269.695 76.5927" stroke="#263238" stroke-miterlimit="10" stroke-linecap="round"/>
<path d="M270.296 58.4098C270.296 58.4098 267.473 59.218 265.725 62.7287C263.978 66.2395 265.591 69.6113 268.009 69.882C270.427 70.1526 271.77 66.2395 271.77 63.27C271.77 60.3005 271.501 58.5487 270.292 58.4134L270.296 58.4098Z" fill="white" stroke="#263238" stroke-linecap="round" stroke-linejoin="round"/>
<path d="M267.437 61.7706C267.437 61.7706 266.312 63.1895 265.642 65.8884C264.972 68.5874 263.741 72.036 263.741 72.036C263.741 72.036 260.114 70.4159 257.022 69.3371C253.931 68.2582 250.977 65.5593 250.977 65.5593C250.977 65.5593 250.573 63.131 249.903 63.131C249.233 63.131 246.742 63.025 246.6 63.5882C246.458 64.155 246.812 65.5666 246.954 65.9177C247.096 66.2724 247.656 66.554 248.148 66.6235C248.64 66.693 248.92 66.7661 248.92 66.7661C248.92 66.7661 248.92 67.1904 249.484 67.5414C250.049 67.8962 250.89 67.8962 250.89 67.8962C250.89 67.8962 254.899 71.2863 256.589 72.4894C258.279 73.689 262.499 75.6674 263.763 76.2343C265.03 76.8011 265.875 76.9401 266.366 76.5159C266.858 76.0916 270.565 66.3858 271.057 65.0437C271.548 63.7015 271.548 60.593 270.492 59.6056" fill="white"/>
<path d="M267.437 61.7706C267.437 61.7706 266.312 63.1895 265.642 65.8884C264.972 68.5874 263.741 72.036 263.741 72.036C263.741 72.036 260.114 70.4159 257.022 69.3371C253.931 68.2582 250.977 65.5593 250.977 65.5593C250.977 65.5593 250.573 63.131 249.903 63.131C249.233 63.131 246.742 63.025 246.6 63.5882C246.458 64.155 246.812 65.5666 246.954 65.9177C247.096 66.2724 247.656 66.554 248.148 66.6235C248.64 66.693 248.92 66.7661 248.92 66.7661C248.92 66.7661 248.92 67.1904 249.484 67.5414C250.049 67.8962 250.89 67.8962 250.89 67.8962C250.89 67.8962 254.899 71.2863 256.589 72.4894C258.279 73.689 262.499 75.6674 263.763 76.2343C265.03 76.8011 265.875 76.9401 266.366 76.5159C266.858 76.0916 270.565 66.3858 271.057 65.0437C271.548 63.7015 271.548 60.593 270.492 59.6056" stroke="#263238" stroke-linecap="round" stroke-linejoin="round"/>
</g>
<path d="M35.022 55.322L32.877 63H31.062L29.621 57.533L28.114 63L26.31 63.011L24.242 55.322H25.892L27.245 61.284L28.807 55.322H30.523L31.997 61.251L33.361 55.322H35.022ZM35.6316 59.931C35.6316 59.315 35.7526 58.7687 35.9946 58.292C36.2439 57.8153 36.5776 57.4487 36.9956 57.192C37.4209 56.9353 37.8939 56.807 38.4146 56.807C38.8692 56.807 39.2652 56.8987 39.6026 57.082C39.9472 57.2653 40.2222 57.4963 40.4276 57.775V56.906H41.9786V63H40.4276V62.109C40.2296 62.395 39.9546 62.6333 39.6026 62.824C39.2579 63.0073 38.8582 63.099 38.4036 63.099C37.8902 63.099 37.4209 62.967 36.9956 62.703C36.5776 62.439 36.2439 62.0687 35.9946 61.592C35.7526 61.108 35.6316 60.5543 35.6316 59.931ZM40.4276 59.953C40.4276 59.579 40.3542 59.26 40.2076 58.996C40.0609 58.7247 39.8629 58.5193 39.6136 58.38C39.3642 58.2333 39.0966 58.16 38.8106 58.16C38.5246 58.16 38.2606 58.2297 38.0186 58.369C37.7766 58.5083 37.5786 58.7137 37.4246 58.985C37.2779 59.249 37.2046 59.5643 37.2046 59.931C37.2046 60.2977 37.2779 60.6203 37.4246 60.899C37.5786 61.1703 37.7766 61.3793 38.0186 61.526C38.2679 61.6727 38.5319 61.746 38.8106 61.746C39.0966 61.746 39.3642 61.6763 39.6136 61.537C39.8629 61.3903 40.0609 61.185 40.2076 60.921C40.3542 60.6497 40.4276 60.327 40.4276 59.953ZM45.0226 54.86V63H43.4826V54.86H45.0226ZM50.1522 63L48.0842 60.404V63H46.5442V54.86H48.0842V59.491L50.1302 56.906H52.1322L49.4482 59.964L52.1542 63H50.1522ZM58.2951 63.099C57.7084 63.099 57.1804 62.9707 56.7111 62.714C56.2417 62.45 55.8714 62.0797 55.6001 61.603C55.3361 61.1263 55.2041 60.5763 55.2041 59.953C55.2041 59.3297 55.3397 58.7797 55.6111 58.303C55.8897 57.8263 56.2674 57.4597 56.7441 57.203C57.2207 56.939 57.7524 56.807 58.3391 56.807C58.9257 56.807 59.4574 56.939 59.9341 57.203C60.4107 57.4597 60.7847 57.8263 61.0561 58.303C61.3347 58.7797 61.4741 59.3297 61.4741 59.953C61.4741 60.5763 61.3311 61.1263 61.0451 61.603C60.7664 62.0797 60.3851 62.45 59.9011 62.714C59.4244 62.9707 58.8891 63.099 58.2951 63.099ZM58.2951 61.757C58.5737 61.757 58.8341 61.691 59.0761 61.559C59.3254 61.4197 59.5234 61.2143 59.6701 60.943C59.8167 60.6717 59.8901 60.3417 59.8901 59.953C59.8901 59.3737 59.7361 58.93 59.4281 58.622C59.1274 58.3067 58.7571 58.149 58.3171 58.149C57.8771 58.149 57.5067 58.3067 57.2061 58.622C56.9127 58.93 56.7661 59.3737 56.7661 59.953C56.7661 60.5323 56.9091 60.9797 57.1951 61.295C57.4884 61.603 57.8551 61.757 58.2951 61.757ZM64.1437 57.852C64.3417 57.5293 64.5984 57.2763 64.9137 57.093C65.2364 56.9097 65.6031 56.818 66.0137 56.818V58.435H65.6067C65.1227 58.435 64.7561 58.5487 64.5067 58.776C64.2647 59.0033 64.1437 59.3993 64.1437 59.964V63H62.6037V56.906H64.1437V57.852ZM71.2121 57.852C71.4101 57.5293 71.6668 57.2763 71.9821 57.093C72.3048 56.9097 72.6714 56.818 73.0821 56.818V58.435H72.6751C72.1911 58.435 71.8244 58.5487 71.5751 58.776C71.3331 59.0033 71.2121 59.3993 71.2121 59.964V63H69.6721V56.906H71.2121V57.852ZM79.8724 56.906V63H78.3214V62.23C78.1234 62.494 77.863 62.703 77.5404 62.857C77.225 63.0037 76.8804 63.077 76.5064 63.077C76.0297 63.077 75.608 62.978 75.2414 62.78C74.8747 62.5747 74.585 62.2777 74.3724 61.889C74.167 61.493 74.0644 61.0237 74.0644 60.481V56.906H75.6044V60.261C75.6044 60.745 75.7254 61.119 75.9674 61.383C76.2094 61.6397 76.5394 61.768 76.9574 61.768C77.3827 61.768 77.7164 61.6397 77.9584 61.383C78.2004 61.119 78.3214 60.745 78.3214 60.261V56.906H79.8724ZM84.7688 56.818C85.4948 56.818 86.0815 57.049 86.5288 57.511C86.9761 57.9657 87.1998 58.6037 87.1998 59.425V63H85.6598V59.634C85.6598 59.15 85.5388 58.7797 85.2968 58.523C85.0548 58.259 84.7248 58.127 84.3068 58.127C83.8815 58.127 83.5441 58.259 83.2948 58.523C83.0528 58.7797 82.9318 59.15 82.9318 59.634V63H81.3918V56.906H82.9318V57.665C83.1371 57.401 83.3975 57.1957 83.7128 57.049C84.0355 56.895 84.3875 56.818 84.7688 56.818ZM91.5934 61.262C92.2974 60.6753 92.8584 60.1877 93.2764 59.799C93.6944 59.403 94.0427 58.9923 94.3214 58.567C94.6 58.1417 94.7394 57.7237 94.7394 57.313C94.7394 56.939 94.6514 56.6457 94.4754 56.433C94.2994 56.2203 94.028 56.114 93.6614 56.114C93.2947 56.114 93.0124 56.2387 92.8144 56.488C92.6164 56.73 92.5137 57.0637 92.5064 57.489H91.0104C91.0397 56.609 91.3 55.9417 91.7914 55.487C92.29 55.0323 92.9207 54.805 93.6834 54.805C94.5194 54.805 95.161 55.0287 95.6084 55.476C96.0557 55.916 96.2794 56.499 96.2794 57.225C96.2794 57.797 96.1254 58.3433 95.8174 58.864C95.5094 59.3847 95.1574 59.8393 94.7614 60.228C94.3654 60.6093 93.8484 61.0713 93.2104 61.614H96.4554V62.89H91.0214V61.746L91.5934 61.262ZM99.2848 61.383L97.9978 64.474H97.0078L97.7228 61.383H99.2848ZM100.219 58.886C100.219 57.6173 100.446 56.6237 100.901 55.905C101.363 55.1863 102.125 54.827 103.189 54.827C104.252 54.827 105.011 55.1863 105.466 55.905C105.928 56.6237 106.159 57.6173 106.159 58.886C106.159 60.162 105.928 61.163 105.466 61.889C105.011 62.615 104.252 62.978 103.189 62.978C102.125 62.978 101.363 62.615 100.901 61.889C100.446 61.163 100.219 60.162 100.219 58.886ZM104.641 58.886C104.641 58.3433 104.604 57.8887 104.531 57.522C104.465 57.148 104.325 56.8437 104.113 56.609C103.907 56.3743 103.599 56.257 103.189 56.257C102.778 56.257 102.466 56.3743 102.254 56.609C102.048 56.8437 101.909 57.148 101.836 57.522C101.77 57.8887 101.737 58.3433 101.737 58.886C101.737 59.4433 101.77 59.9127 101.836 60.294C101.902 60.668 102.041 60.9723 102.254 61.207C102.466 61.4343 102.778 61.548 103.189 61.548C103.599 61.548 103.911 61.4343 104.124 61.207C104.336 60.9723 104.476 60.668 104.542 60.294C104.608 59.9127 104.641 59.4433 104.641 58.886ZM107.33 58.886C107.33 57.6173 107.557 56.6237 108.012 55.905C108.474 55.1863 109.237 54.827 110.3 54.827C111.363 54.827 112.122 55.1863 112.577 55.905C113.039 56.6237 113.27 57.6173 113.27 58.886C113.27 60.162 113.039 61.163 112.577 61.889C112.122 62.615 111.363 62.978 110.3 62.978C109.237 62.978 108.474 62.615 108.012 61.889C107.557 61.163 107.33 60.162 107.33 58.886ZM111.752 58.886C111.752 58.3433 111.715 57.8887 111.642 57.522C111.576 57.148 111.437 56.8437 111.224 56.609C111.019 56.3743 110.711 56.257 110.3 56.257C109.889 56.257 109.578 56.3743 109.365 56.609C109.16 56.8437 109.02 57.148 108.947 57.522C108.881 57.8887 108.848 58.3433 108.848 58.886C108.848 59.4433 108.881 59.9127 108.947 60.294C109.013 60.668 109.152 60.9723 109.365 61.207C109.578 61.4343 109.889 61.548 110.3 61.548C110.711 61.548 111.022 61.4343 111.235 61.207C111.448 60.9723 111.587 60.668 111.653 60.294C111.719 59.9127 111.752 59.4433 111.752 58.886ZM114.441 58.886C114.441 57.6173 114.669 56.6237 115.123 55.905C115.585 55.1863 116.348 54.827 117.411 54.827C118.475 54.827 119.234 55.1863 119.688 55.905C120.15 56.6237 120.381 57.6173 120.381 58.886C120.381 60.162 120.15 61.163 119.688 61.889C119.234 62.615 118.475 62.978 117.411 62.978C116.348 62.978 115.585 62.615 115.123 61.889C114.669 61.163 114.441 60.162 114.441 58.886ZM118.863 58.886C118.863 58.3433 118.827 57.8887 118.753 57.522C118.687 57.148 118.548 56.8437 118.335 56.609C118.13 56.3743 117.822 56.257 117.411 56.257C117.001 56.257 116.689 56.3743 116.476 56.609C116.271 56.8437 116.132 57.148 116.058 57.522C115.992 57.8887 115.959 58.3433 115.959 58.886C115.959 59.4433 115.992 59.9127 116.058 60.294C116.124 60.668 116.264 60.9723 116.476 61.207C116.689 61.4343 117.001 61.548 117.411 61.548C117.822 61.548 118.134 61.4343 118.346 61.207C118.559 60.9723 118.698 60.668 118.764 60.294C118.83 59.9127 118.863 59.4433 118.863 58.886ZM126.682 63.099C126.183 63.099 125.736 63.011 125.34 62.835C124.944 62.6517 124.628 62.406 124.394 62.098C124.166 61.79 124.042 61.449 124.02 61.075H125.571C125.6 61.3097 125.714 61.504 125.912 61.658C126.117 61.812 126.37 61.889 126.671 61.889C126.964 61.889 127.191 61.8303 127.353 61.713C127.521 61.5957 127.606 61.4453 127.606 61.262C127.606 61.064 127.503 60.9173 127.298 60.822C127.1 60.7193 126.781 60.6093 126.341 60.492C125.886 60.382 125.512 60.2683 125.219 60.151C124.933 60.0337 124.683 59.854 124.471 59.612C124.265 59.37 124.163 59.0437 124.163 58.633C124.163 58.2957 124.258 57.9877 124.449 57.709C124.647 57.4303 124.925 57.2103 125.285 57.049C125.651 56.8877 126.08 56.807 126.572 56.807C127.298 56.807 127.877 56.9903 128.31 57.357C128.742 57.7163 128.981 58.204 129.025 58.82H127.551C127.529 58.578 127.426 58.3873 127.243 58.248C127.067 58.1013 126.828 58.028 126.528 58.028C126.249 58.028 126.033 58.0793 125.879 58.182C125.732 58.2847 125.659 58.4277 125.659 58.611C125.659 58.8163 125.761 58.974 125.967 59.084C126.172 59.1867 126.491 59.293 126.924 59.403C127.364 59.513 127.727 59.6267 128.013 59.744C128.299 59.8613 128.544 60.0447 128.75 60.294C128.962 60.536 129.072 60.8587 129.08 61.262C129.08 61.614 128.981 61.9293 128.783 62.208C128.592 62.4867 128.313 62.7067 127.947 62.868C127.587 63.022 127.166 63.099 126.682 63.099ZM132.137 58.171V61.119C132.137 61.3243 132.185 61.4747 132.28 61.57C132.383 61.658 132.551 61.702 132.786 61.702H133.501V63H132.533C131.235 63 130.586 62.3693 130.586 61.108V58.171H129.86V56.906H130.586V55.399H132.137V56.906H133.501V58.171H132.137ZM140.274 59.821C140.274 60.041 140.259 60.239 140.23 60.415H135.775C135.811 60.855 135.965 61.1997 136.237 61.449C136.508 61.6983 136.842 61.823 137.238 61.823C137.81 61.823 138.217 61.5773 138.459 61.086H140.12C139.944 61.6727 139.606 62.1567 139.108 62.538C138.609 62.912 137.997 63.099 137.271 63.099C136.684 63.099 136.156 62.9707 135.687 62.714C135.225 62.45 134.862 62.0797 134.598 61.603C134.341 61.1263 134.213 60.5763 134.213 59.953C134.213 59.3223 134.341 58.7687 134.598 58.292C134.854 57.8153 135.214 57.4487 135.676 57.192C136.138 56.9353 136.669 56.807 137.271 56.807C137.85 56.807 138.367 56.9317 138.822 57.181C139.284 57.4303 139.639 57.786 139.889 58.248C140.145 58.7027 140.274 59.227 140.274 59.821ZM138.679 59.381C138.671 58.985 138.528 58.6697 138.25 58.435C137.971 58.193 137.63 58.072 137.227 58.072C136.845 58.072 136.523 58.1893 136.259 58.424C136.002 58.6513 135.844 58.9703 135.786 59.381H138.679ZM142.938 57.786C143.136 57.5073 143.407 57.2763 143.752 57.093C144.104 56.9023 144.503 56.807 144.951 56.807C145.471 56.807 145.941 56.9353 146.359 57.192C146.784 57.4487 147.118 57.8153 147.36 58.292C147.609 58.7613 147.734 59.3077 147.734 59.931C147.734 60.5543 147.609 61.108 147.36 61.592C147.118 62.0687 146.784 62.439 146.359 62.703C145.941 62.967 145.471 63.099 144.951 63.099C144.503 63.099 144.107 63.0073 143.763 62.824C143.425 62.6407 143.15 62.4097 142.938 62.131V65.904H141.398V56.906H142.938V57.786ZM146.161 59.931C146.161 59.5643 146.084 59.249 145.93 58.985C145.783 58.7137 145.585 58.5083 145.336 58.369C145.094 58.2297 144.83 58.16 144.544 58.16C144.265 58.16 144.001 58.2333 143.752 58.38C143.51 58.5193 143.312 58.7247 143.158 58.996C143.011 59.2673 142.938 59.5863 142.938 59.953C142.938 60.3197 143.011 60.6387 143.158 60.91C143.312 61.1813 143.51 61.3903 143.752 61.537C144.001 61.6763 144.265 61.746 144.544 61.746C144.83 61.746 145.094 61.6727 145.336 61.526C145.585 61.3793 145.783 61.1703 145.93 60.899C146.084 60.6277 146.161 60.305 146.161 59.931ZM151.185 63.099C150.686 63.099 150.239 63.011 149.843 62.835C149.447 62.6517 149.131 62.406 148.897 62.098C148.669 61.79 148.545 61.449 148.523 61.075H150.074C150.103 61.3097 150.217 61.504 150.415 61.658C150.62 61.812 150.873 61.889 151.174 61.889C151.467 61.889 151.694 61.8303 151.856 61.713C152.024 61.5957 152.109 61.4453 152.109 61.262C152.109 61.064 152.006 60.9173 151.801 60.822C151.603 60.7193 151.284 60.6093 150.844 60.492C150.389 60.382 150.015 60.2683 149.722 60.151C149.436 60.0337 149.186 59.854 148.974 59.612C148.768 59.37 148.666 59.0437 148.666 58.633C148.666 58.2957 148.761 57.9877 148.952 57.709C149.15 57.4303 149.428 57.2103 149.788 57.049C150.154 56.8877 150.583 56.807 151.075 56.807C151.801 56.807 152.38 56.9903 152.813 57.357C153.245 57.7163 153.484 58.204 153.528 58.82H152.054C152.032 58.578 151.929 58.3873 151.746 58.248C151.57 58.1013 151.331 58.028 151.031 58.028C150.752 58.028 150.536 58.0793 150.382 58.182C150.235 58.2847 150.162 58.4277 150.162 58.611C150.162 58.8163 150.264 58.974 150.47 59.084C150.675 59.1867 150.994 59.293 151.427 59.403C151.867 59.513 152.23 59.6267 152.516 59.744C152.802 59.8613 153.047 60.0447 153.253 60.294C153.465 60.536 153.575 60.8587 153.583 61.262C153.583 61.614 153.484 61.9293 153.286 62.208C153.095 62.4867 152.816 62.7067 152.45 62.868C152.09 63.022 151.669 63.099 151.185 63.099ZM158.249 56.18C157.978 56.18 157.75 56.0957 157.567 55.927C157.391 55.751 157.303 55.5347 157.303 55.278C157.303 55.0213 157.391 54.8087 157.567 54.64C157.75 54.464 157.978 54.376 158.249 54.376C158.52 54.376 158.744 54.464 158.92 54.64C159.103 54.8087 159.195 55.0213 159.195 55.278C159.195 55.5347 159.103 55.751 158.92 55.927C158.744 56.0957 158.52 56.18 158.249 56.18ZM159.008 56.906V63H157.468V56.906H159.008ZM163.907 56.818C164.633 56.818 165.219 57.049 165.667 57.511C166.114 57.9657 166.338 58.6037 166.338 59.425V63H164.798V59.634C164.798 59.15 164.677 58.7797 164.435 58.523C164.193 58.259 163.863 58.127 163.445 58.127C163.019 58.127 162.682 58.259 162.433 58.523C162.191 58.7797 162.07 59.15 162.07 59.634V63H160.53V56.906H162.07V57.665C162.275 57.401 162.535 57.1957 162.851 57.049C163.173 56.895 163.525 56.818 163.907 56.818ZM170.06 56.4V54.981H172.711V63H171.127V56.4H170.06ZM24.363 73.931C24.363 73.315 24.484 72.7687 24.726 72.292C24.9753 71.8153 25.3127 71.4487 25.738 71.192C26.1633 70.9353 26.6363 70.807 27.157 70.807C27.553 70.807 27.9307 70.895 28.29 71.071C28.6493 71.2397 28.9353 71.467 29.148 71.753V68.86H30.71V77H29.148V76.098C28.9573 76.3987 28.6897 76.6407 28.345 76.824C28.0003 77.0073 27.6007 77.099 27.146 77.099C26.6327 77.099 26.1633 76.967 25.738 76.703C25.3127 76.439 24.9753 76.0687 24.726 75.592C24.484 75.108 24.363 74.5543 24.363 73.931ZM29.159 73.953C29.159 73.579 29.0857 73.26 28.939 72.996C28.7923 72.7247 28.5943 72.5193 28.345 72.38C28.0957 72.2333 27.828 72.16 27.542 72.16C27.256 72.16 26.992 72.2297 26.75 72.369C26.508 72.5083 26.31 72.7137 26.156 72.985C26.0093 73.249 25.936 73.5643 25.936 73.931C25.936 74.2977 26.0093 74.6203 26.156 74.899C26.31 75.1703 26.508 75.3793 26.75 75.526C26.9993 75.6727 27.2633 75.746 27.542 75.746C27.828 75.746 28.0957 75.6763 28.345 75.537C28.5943 75.3903 28.7923 75.185 28.939 74.921C29.0857 74.6497 29.159 74.327 29.159 73.953ZM31.8181 73.931C31.8181 73.315 31.9391 72.7687 32.1811 72.292C32.4304 71.8153 32.7641 71.4487 33.1821 71.192C33.6074 70.9353 34.0804 70.807 34.6011 70.807C35.0557 70.807 35.4517 70.8987 35.7891 71.082C36.1337 71.2653 36.4087 71.4963 36.6141 71.775V70.906H38.1651V77H36.6141V76.109C36.4161 76.395 36.1411 76.6333 35.7891 76.824C35.4444 77.0073 35.0447 77.099 34.5901 77.099C34.0767 77.099 33.6074 76.967 33.1821 76.703C32.7641 76.439 32.4304 76.0687 32.1811 75.592C31.9391 75.108 31.8181 74.5543 31.8181 73.931ZM36.6141 73.953C36.6141 73.579 36.5407 73.26 36.3941 72.996C36.2474 72.7247 36.0494 72.5193 35.8001 72.38C35.5507 72.2333 35.2831 72.16 34.9971 72.16C34.7111 72.16 34.4471 72.2297 34.2051 72.369C33.9631 72.5083 33.7651 72.7137 33.6111 72.985C33.4644 73.249 33.3911 73.5643 33.3911 73.931C33.3911 74.2977 33.4644 74.6203 33.6111 74.899C33.7651 75.1703 33.9631 75.3793 34.2051 75.526C34.4544 75.6727 34.7184 75.746 34.9971 75.746C35.2831 75.746 35.5507 75.6763 35.8001 75.537C36.0494 75.3903 36.2474 75.185 36.3941 74.921C36.5407 74.6497 36.6141 74.327 36.6141 73.953ZM45.4992 70.906L41.7262 79.882H40.0872L41.4072 76.846L38.9652 70.906H40.6922L42.2652 75.163L43.8602 70.906H45.4992ZM48.5544 73.931C48.5544 73.315 48.6754 72.7687 48.9174 72.292C49.1667 71.8153 49.5004 71.4487 49.9184 71.192C50.3437 70.9353 50.8167 70.807 51.3374 70.807C51.7921 70.807 52.1881 70.8987 52.5254 71.082C52.8701 71.2653 53.1451 71.4963 53.3504 71.775V70.906H54.9014V77H53.3504V76.109C53.1524 76.395 52.8774 76.6333 52.5254 76.824C52.1807 77.0073 51.7811 77.099 51.3264 77.099C50.8131 77.099 50.3437 76.967 49.9184 76.703C49.5004 76.439 49.1667 76.0687 48.9174 75.592C48.6754 75.108 48.5544 74.5543 48.5544 73.931ZM53.3504 73.953C53.3504 73.579 53.2771 73.26 53.1304 72.996C52.9837 72.7247 52.7857 72.5193 52.5364 72.38C52.2871 72.2333 52.0194 72.16 51.7334 72.16C51.4474 72.16 51.1834 72.2297 50.9414 72.369C50.6994 72.5083 50.5014 72.7137 50.3474 72.985C50.2007 73.249 50.1274 73.5643 50.1274 73.931C50.1274 74.2977 50.2007 74.6203 50.3474 74.899C50.5014 75.1703 50.6994 75.3793 50.9414 75.526C51.1907 75.6727 51.4547 75.746 51.7334 75.746C52.0194 75.746 52.2871 75.6763 52.5364 75.537C52.7857 75.3903 52.9837 75.185 53.1304 74.921C53.2771 74.6497 53.3504 74.327 53.3504 73.953ZM59.7825 70.818C60.5085 70.818 61.0952 71.049 61.5425 71.511C61.9898 71.9657 62.2135 72.6037 62.2135 73.425V77H60.6735V73.634C60.6735 73.15 60.5525 72.7797 60.3105 72.523C60.0685 72.259 59.7385 72.127 59.3205 72.127C58.8952 72.127 58.5578 72.259 58.3085 72.523C58.0665 72.7797 57.9455 73.15 57.9455 73.634V77H56.4055V70.906H57.9455V71.665C58.1508 71.401 58.4112 71.1957 58.7265 71.049C59.0492 70.895 59.4012 70.818 59.7825 70.818ZM63.2819 73.931C63.2819 73.315 63.4029 72.7687 63.6449 72.292C63.8943 71.8153 64.2316 71.4487 64.6569 71.192C65.0823 70.9353 65.5553 70.807 66.0759 70.807C66.4719 70.807 66.8496 70.895 67.2089 71.071C67.5683 71.2397 67.8543 71.467 68.0669 71.753V68.86H69.6289V77H68.0669V76.098C67.8763 76.3987 67.6086 76.6407 67.2639 76.824C66.9193 77.0073 66.5196 77.099 66.0649 77.099C65.5516 77.099 65.0823 76.967 64.6569 76.703C64.2316 76.439 63.8943 76.0687 63.6449 75.592C63.4029 75.108 63.2819 74.5543 63.2819 73.931ZM68.0779 73.953C68.0779 73.579 68.0046 73.26 67.8579 72.996C67.7113 72.7247 67.5133 72.5193 67.2639 72.38C67.0146 72.2333 66.7469 72.16 66.4609 72.16C66.1749 72.16 65.9109 72.2297 65.6689 72.369C65.4269 72.5083 65.2289 72.7137 65.0749 72.985C64.9283 73.249 64.8549 73.5643 64.8549 73.931C64.8549 74.2977 64.9283 74.6203 65.0749 74.899C65.2289 75.1703 65.4269 75.3793 65.6689 75.526C65.9183 75.6727 66.1823 75.746 66.4609 75.746C66.7469 75.746 67.0146 75.6763 67.2639 75.537C67.5133 75.3903 67.7113 75.185 67.8579 74.921C68.0046 74.6497 68.0779 74.327 68.0779 73.953ZM79.4191 73.821C79.4191 74.041 79.4045 74.239 79.3751 74.415H74.9201C74.9568 74.855 75.1108 75.1997 75.3821 75.449C75.6535 75.6983 75.9871 75.823 76.3831 75.823C76.9551 75.823 77.3621 75.5773 77.6041 75.086H79.2651C79.0891 75.6727 78.7518 76.1567 78.2531 76.538C77.7545 76.912 77.1421 77.099 76.4161 77.099C75.8295 77.099 75.3015 76.9707 74.8321 76.714C74.3701 76.45 74.0071 76.0797 73.7431 75.603C73.4865 75.1263 73.3581 74.5763 73.3581 73.953C73.3581 73.3223 73.4865 72.7687 73.7431 72.292C73.9998 71.8153 74.3591 71.4487 74.8211 71.192C75.2831 70.9353 75.8148 70.807 76.4161 70.807C76.9955 70.807 77.5125 70.9317 77.9671 71.181C78.4291 71.4303 78.7848 71.786 79.0341 72.248C79.2908 72.7027 79.4191 73.227 79.4191 73.821ZM77.8241 73.381C77.8168 72.985 77.6738 72.6697 77.3951 72.435C77.1165 72.193 76.7755 72.072 76.3721 72.072C75.9908 72.072 75.6681 72.1893 75.4041 72.424C75.1475 72.6513 74.9898 72.9703 74.9311 73.381H77.8241ZM80.1472 73.931C80.1472 73.315 80.2682 72.7687 80.5102 72.292C80.7595 71.8153 81.0932 71.4487 81.5112 71.192C81.9365 70.9353 82.4095 70.807 82.9302 70.807C83.3848 70.807 83.7808 70.8987 84.1182 71.082C84.4628 71.2653 84.7378 71.4963 84.9432 71.775V70.906H86.4942V77H84.9432V76.109C84.7452 76.395 84.4702 76.6333 84.1182 76.824C83.7735 77.0073 83.3738 77.099 82.9192 77.099C82.4058 77.099 81.9365 76.967 81.5112 76.703C81.0932 76.439 80.7595 76.0687 80.5102 75.592C80.2682 75.108 80.1472 74.5543 80.1472 73.931ZM84.9432 73.953C84.9432 73.579 84.8698 73.26 84.7232 72.996C84.5765 72.7247 84.3785 72.5193 84.1292 72.38C83.8798 72.2333 83.6122 72.16 83.3262 72.16C83.0402 72.16 82.7762 72.2297 82.5342 72.369C82.2922 72.5083 82.0942 72.7137 81.9402 72.985C81.7935 73.249 81.7202 73.5643 81.7202 73.931C81.7202 74.2977 81.7935 74.6203 81.9402 74.899C82.0942 75.1703 82.2922 75.3793 82.5342 75.526C82.7835 75.6727 83.0475 75.746 83.3262 75.746C83.6122 75.746 83.8798 75.6763 84.1292 75.537C84.3785 75.3903 84.5765 75.185 84.7232 74.921C84.8698 74.6497 84.9432 74.327 84.9432 73.953ZM89.5383 71.852C89.7363 71.5293 89.9929 71.2763 90.3083 71.093C90.6309 70.9097 90.9976 70.818 91.4083 70.818V72.435H91.0013C90.5173 72.435 90.1506 72.5487 89.9013 72.776C89.6593 73.0033 89.5383 73.3993 89.5383 73.964V77H87.9983V70.906H89.5383V71.852ZM95.8225 70.818C96.5485 70.818 97.1352 71.049 97.5825 71.511C98.0299 71.9657 98.2535 72.6037 98.2535 73.425V77H96.7135V73.634C96.7135 73.15 96.5925 72.7797 96.3505 72.523C96.1085 72.259 95.7785 72.127 95.3605 72.127C94.9352 72.127 94.5979 72.259 94.3485 72.523C94.1065 72.7797 93.9855 73.15 93.9855 73.634V77H92.4455V70.906H93.9855V71.665C94.1909 71.401 94.4512 71.1957 94.7665 71.049C95.0892 70.895 95.4412 70.818 95.8225 70.818ZM101.976 70.4V68.981H104.627V77H103.043V70.4H101.976ZM106.148 72.886C106.148 71.6173 106.376 70.6237 106.83 69.905C107.292 69.1863 108.055 68.827 109.118 68.827C110.182 68.827 110.941 69.1863 111.395 69.905C111.857 70.6237 112.088 71.6173 112.088 72.886C112.088 74.162 111.857 75.163 111.395 75.889C110.941 76.615 110.182 76.978 109.118 76.978C108.055 76.978 107.292 76.615 106.83 75.889C106.376 75.163 106.148 74.162 106.148 72.886ZM110.57 72.886C110.57 72.3433 110.534 71.8887 110.46 71.522C110.394 71.148 110.255 70.8437 110.042 70.609C109.837 70.3743 109.529 70.257 109.118 70.257C108.708 70.257 108.396 70.3743 108.183 70.609C107.978 70.8437 107.839 71.148 107.765 71.522C107.699 71.8887 107.666 72.3433 107.666 72.886C107.666 73.4433 107.699 73.9127 107.765 74.294C107.831 74.668 107.971 74.9723 108.183 75.207C108.396 75.4343 108.708 75.548 109.118 75.548C109.529 75.548 109.841 75.4343 110.053 75.207C110.266 74.9723 110.405 74.668 110.471 74.294C110.537 73.9127 110.57 73.4433 110.57 72.886ZM115.661 73.953C115.661 73.3223 115.789 72.7723 116.046 72.303C116.303 71.8263 116.658 71.4597 117.113 71.203C117.568 70.939 118.088 70.807 118.675 70.807C119.43 70.807 120.054 70.9977 120.545 71.379C121.044 71.753 121.377 72.281 121.546 72.963H119.885C119.797 72.699 119.647 72.4937 119.434 72.347C119.229 72.193 118.972 72.116 118.664 72.116C118.224 72.116 117.876 72.2773 117.619 72.6C117.362 72.9153 117.234 73.3663 117.234 73.953C117.234 74.5323 117.362 74.9833 117.619 75.306C117.876 75.6213 118.224 75.779 118.664 75.779C119.287 75.779 119.694 75.5003 119.885 74.943H121.546C121.377 75.603 121.044 76.1273 120.545 76.516C120.046 76.9047 119.423 77.099 118.675 77.099C118.088 77.099 117.568 76.9707 117.113 76.714C116.658 76.45 116.303 76.0833 116.046 75.614C115.789 75.1373 115.661 74.5837 115.661 73.953ZM125.38 77.099C124.793 77.099 124.265 76.9707 123.796 76.714C123.327 76.45 122.956 76.0797 122.685 75.603C122.421 75.1263 122.289 74.5763 122.289 73.953C122.289 73.3297 122.425 72.7797 122.696 72.303C122.975 71.8263 123.352 71.4597 123.829 71.203C124.306 70.939 124.837 70.807 125.424 70.807C126.011 70.807 126.542 70.939 127.019 71.203C127.496 71.4597 127.87 71.8263 128.141 72.303C128.42 72.7797 128.559 73.3297 128.559 73.953C128.559 74.5763 128.416 75.1263 128.13 75.603C127.851 76.0797 127.47 76.45 126.986 76.714C126.509 76.9707 125.974 77.099 125.38 77.099ZM125.38 75.757C125.659 75.757 125.919 75.691 126.161 75.559C126.41 75.4197 126.608 75.2143 126.755 74.943C126.902 74.6717 126.975 74.3417 126.975 73.953C126.975 73.3737 126.821 72.93 126.513 72.622C126.212 72.3067 125.842 72.149 125.402 72.149C124.962 72.149 124.592 72.3067 124.291 72.622C123.998 72.93 123.851 73.3737 123.851 73.953C123.851 74.5323 123.994 74.9797 124.28 75.295C124.573 75.603 124.94 75.757 125.38 75.757ZM130.47 70.18C130.198 70.18 129.971 70.0957 129.788 69.927C129.612 69.751 129.524 69.5347 129.524 69.278C129.524 69.0213 129.612 68.8087 129.788 68.64C129.971 68.464 130.198 68.376 130.47 68.376C130.741 68.376 130.965 68.464 131.141 68.64C131.324 68.8087 131.416 69.0213 131.416 69.278C131.416 69.5347 131.324 69.751 131.141 69.927C130.965 70.0957 130.741 70.18 130.47 70.18ZM131.229 70.906V77H129.689V70.906H131.229ZM136.127 70.818C136.853 70.818 137.44 71.049 137.887 71.511C138.335 71.9657 138.558 72.6037 138.558 73.425V77H137.018V73.634C137.018 73.15 136.897 72.7797 136.655 72.523C136.413 72.259 136.083 72.127 135.665 72.127C135.24 72.127 134.903 72.259 134.653 72.523C134.411 72.7797 134.29 73.15 134.29 73.634V77H132.75V70.906H134.29V71.665C134.496 71.401 134.756 71.1957 135.071 71.049C135.394 70.895 135.746 70.818 136.127 70.818ZM142.355 77.099C141.856 77.099 141.409 77.011 141.013 76.835C140.617 76.6517 140.301 76.406 140.067 76.098C139.839 75.79 139.715 75.449 139.693 75.075H141.244C141.273 75.3097 141.387 75.504 141.585 75.658C141.79 75.812 142.043 75.889 142.344 75.889C142.637 75.889 142.864 75.8303 143.026 75.713C143.194 75.5957 143.279 75.4453 143.279 75.262C143.279 75.064 143.176 74.9173 142.971 74.822C142.773 74.7193 142.454 74.6093 142.014 74.492C141.559 74.382 141.185 74.2683 140.892 74.151C140.606 74.0337 140.356 73.854 140.144 73.612C139.938 73.37 139.836 73.0437 139.836 72.633C139.836 72.2957 139.931 71.9877 140.122 71.709C140.32 71.4303 140.598 71.2103 140.958 71.049C141.324 70.8877 141.753 70.807 142.245 70.807C142.971 70.807 143.55 70.9903 143.983 71.357C144.415 71.7163 144.654 72.204 144.698 72.82H143.224C143.202 72.578 143.099 72.3873 142.916 72.248C142.74 72.1013 142.501 72.028 142.201 72.028C141.922 72.028 141.706 72.0793 141.552 72.182C141.405 72.2847 141.332 72.4277 141.332 72.611C141.332 72.8163 141.434 72.974 141.64 73.084C141.845 73.1867 142.164 73.293 142.597 73.403C143.037 73.513 143.4 73.6267 143.686 73.744C143.972 73.8613 144.217 74.0447 144.423 74.294C144.635 74.536 144.745 74.8587 144.753 75.262C144.753 75.614 144.654 75.9293 144.456 76.208C144.265 76.4867 143.986 76.7067 143.62 76.868C143.26 77.022 142.839 77.099 142.355 77.099ZM148.008 69.19L147.832 74.503H146.534L146.347 69.19H148.008ZM147.216 77.077C146.937 77.077 146.706 76.9927 146.523 76.824C146.347 76.648 146.259 76.4317 146.259 76.175C146.259 75.9183 146.347 75.7057 146.523 75.537C146.706 75.361 146.937 75.273 147.216 75.273C147.487 75.273 147.711 75.361 147.887 75.537C148.063 75.7057 148.151 75.9183 148.151 76.175C148.151 76.4317 148.063 76.648 147.887 76.824C147.711 76.9927 147.487 77.077 147.216 77.077Z" fill="#333333"/>
<path d="M25.08 43V28.42H31.38V30.598H28.302V34.27H30.984V36.52H28.302V43H25.08ZM32.9027 43V28.42H36.1247V43H32.9027ZM38.2988 43V28.42H42.3128C43.2968 28.42 44.1488 28.528 44.8688 28.744C45.5888 28.96 46.1468 29.35 46.5428 29.914C46.9508 30.466 47.1548 31.252 47.1548 32.272C47.1548 32.872 47.1068 33.406 47.0108 33.874C46.9148 34.342 46.7348 34.75 46.4707 35.098C46.2188 35.434 45.8528 35.716 45.3728 35.944L47.3708 43H44.0408L42.4388 36.466H41.5208V43H38.2988ZM41.5208 34.612H42.4208C42.8768 34.612 43.2308 34.534 43.4828 34.378C43.7348 34.21 43.9088 33.976 44.0048 33.676C44.1128 33.364 44.1668 32.992 44.1668 32.56C44.1668 31.936 44.0528 31.45 43.8248 31.102C43.5968 30.754 43.1768 30.58 42.5648 30.58H41.5208V34.612ZM52.8914 43.216C51.9794 43.216 51.2174 43.054 50.6054 42.73C49.9934 42.406 49.5314 41.908 49.2194 41.236C48.9074 40.552 48.7334 39.67 48.6974 38.59L51.4514 38.176C51.4634 38.8 51.5174 39.304 51.6134 39.688C51.7214 40.072 51.8654 40.348 52.0454 40.516C52.2374 40.684 52.4654 40.768 52.7294 40.768C53.0654 40.768 53.2814 40.654 53.3774 40.426C53.4854 40.198 53.5394 39.958 53.5394 39.706C53.5394 39.106 53.3954 38.602 53.1074 38.194C52.8194 37.774 52.4294 37.354 51.9374 36.934L50.6774 35.836C50.1254 35.368 49.6574 34.84 49.2734 34.252C48.9014 33.652 48.7154 32.914 48.7154 32.038C48.7154 30.802 49.0814 29.86 49.8134 29.212C50.5454 28.552 51.5414 28.222 52.8014 28.222C53.5814 28.222 54.2054 28.354 54.6734 28.618C55.1534 28.882 55.5134 29.23 55.7534 29.662C56.0054 30.082 56.1734 30.532 56.2574 31.012C56.3534 31.48 56.4074 31.93 56.4194 32.362L53.6474 32.704C53.6354 32.272 53.6054 31.9 53.5574 31.588C53.5214 31.264 53.4374 31.018 53.3054 30.85C53.1734 30.67 52.9694 30.58 52.6934 30.58C52.3934 30.58 52.1714 30.706 52.0274 30.958C51.8954 31.21 51.8294 31.462 51.8294 31.714C51.8294 32.254 51.9554 32.698 52.2074 33.046C52.4714 33.382 52.8134 33.736 53.2334 34.108L54.4394 35.17C55.0754 35.71 55.6094 36.322 56.0414 37.006C56.4854 37.69 56.7074 38.536 56.7074 39.544C56.7074 40.228 56.5514 40.852 56.2394 41.416C55.9274 41.968 55.4834 42.406 54.9074 42.73C54.3434 43.054 53.6714 43.216 52.8914 43.216ZM59.5815 43V30.814H57.3855V28.42H64.9995V30.814H62.8215V43H59.5815ZM75.0646 43.216C73.9606 43.216 73.0846 43.018 72.4366 42.622C71.8006 42.214 71.3506 41.65 71.0866 40.93C70.8226 40.198 70.6906 39.34 70.6906 38.356V33.1C70.6906 32.092 70.8226 31.228 71.0866 30.508C71.3506 29.776 71.8006 29.212 72.4366 28.816C73.0846 28.42 73.9606 28.222 75.0646 28.222C76.1446 28.222 76.9846 28.402 77.5846 28.762C78.1966 29.11 78.6286 29.602 78.8806 30.238C79.1326 30.874 79.2586 31.606 79.2586 32.434V33.694H76.1086V32.236C76.1086 31.948 76.0906 31.672 76.0546 31.408C76.0306 31.144 75.9466 30.928 75.8026 30.76C75.6586 30.58 75.4126 30.49 75.0646 30.49C74.7286 30.49 74.4766 30.58 74.3086 30.76C74.1526 30.94 74.0506 31.168 74.0026 31.444C73.9666 31.708 73.9486 31.99 73.9486 32.29V39.148C73.9486 39.472 73.9726 39.772 74.0206 40.048C74.0806 40.312 74.1886 40.528 74.3446 40.696C74.5126 40.852 74.7526 40.93 75.0646 40.93C75.4006 40.93 75.6406 40.846 75.7846 40.678C75.9286 40.498 76.0186 40.27 76.0546 39.994C76.0906 39.718 76.1086 39.436 76.1086 39.148V37.618H79.2586V38.878C79.2586 39.706 79.1326 40.45 78.8806 41.11C78.6406 41.758 78.2146 42.274 77.6026 42.658C77.0026 43.03 76.1566 43.216 75.0646 43.216ZM81.0852 43V28.42H84.3072V34.324H86.5752V28.42H89.7972V43H86.5752V36.628H84.3072V43H81.0852ZM91.3155 43L94.0695 28.42H97.7415L100.46 43H97.4895L97.0035 39.922H94.8615L94.3575 43H91.3155ZM95.1495 37.996H96.6975L95.9235 32.308L95.1495 37.996ZM101.932 43V28.42H105.154V40.822H108.502V43H101.932ZM109.912 43V28.42H113.134V40.822H116.482V43H109.912ZM117.893 43V28.42H124.445V30.616H121.115V34.234H123.653V36.466H121.115V40.822H124.481V43H117.893ZM125.943 43V28.42H128.211L131.199 35.44V28.42H133.863V43H131.685L128.697 35.44V43H125.943ZM139.831 43.216C138.823 43.216 138.025 43.006 137.437 42.586C136.861 42.166 136.447 41.578 136.195 40.822C135.955 40.054 135.835 39.172 135.835 38.176V33.28C135.835 32.248 135.967 31.354 136.231 30.598C136.495 29.842 136.945 29.26 137.581 28.852C138.229 28.432 139.105 28.222 140.209 28.222C141.289 28.222 142.135 28.402 142.747 28.762C143.371 29.122 143.815 29.62 144.079 30.256C144.343 30.892 144.475 31.636 144.475 32.488V33.424H141.325V32.236C141.325 31.924 141.301 31.636 141.253 31.372C141.217 31.108 141.121 30.898 140.965 30.742C140.821 30.574 140.581 30.49 140.245 30.49C139.897 30.49 139.645 30.586 139.489 30.778C139.333 30.958 139.231 31.186 139.183 31.462C139.147 31.738 139.129 32.026 139.129 32.326V39.076C139.129 39.4 139.159 39.706 139.219 39.994C139.291 40.27 139.411 40.498 139.579 40.678C139.759 40.846 140.011 40.93 140.335 40.93C140.671 40.93 140.929 40.84 141.109 40.66C141.289 40.48 141.415 40.246 141.487 39.958C141.559 39.67 141.595 39.364 141.595 39.04V37.33H140.281V35.44H144.493V43H142.369L142.189 41.794C141.997 42.202 141.715 42.544 141.343 42.82C140.971 43.084 140.467 43.216 139.831 43.216ZM146.51 43V28.42H153.062V30.616H149.732V34.234H152.27V36.466H149.732V40.822H153.098V43H146.51ZM158.43 43.216C157.518 43.216 156.756 43.054 156.144 42.73C155.532 42.406 155.07 41.908 154.758 41.236C154.446 40.552 154.272 39.67 154.236 38.59L156.99 38.176C157.002 38.8 157.056 39.304 157.152 39.688C157.26 40.072 157.404 40.348 157.584 40.516C157.776 40.684 158.004 40.768 158.268 40.768C158.604 40.768 158.82 40.654 158.916 40.426C159.024 40.198 159.078 39.958 159.078 39.706C159.078 39.106 158.934 38.602 158.646 38.194C158.358 37.774 157.968 37.354 157.476 36.934L156.216 35.836C155.664 35.368 155.196 34.84 154.812 34.252C154.44 33.652 154.254 32.914 154.254 32.038C154.254 30.802 154.62 29.86 155.352 29.212C156.084 28.552 157.08 28.222 158.34 28.222C159.12 28.222 159.744 28.354 160.212 28.618C160.692 28.882 161.052 29.23 161.292 29.662C161.544 30.082 161.712 30.532 161.796 31.012C161.892 31.48 161.946 31.93 161.958 32.362L159.186 32.704C159.174 32.272 159.144 31.9 159.096 31.588C159.06 31.264 158.976 31.018 158.844 30.85C158.712 30.67 158.508 30.58 158.232 30.58C157.932 30.58 157.71 30.706 157.566 30.958C157.434 31.21 157.368 31.462 157.368 31.714C157.368 32.254 157.494 32.698 157.746 33.046C158.01 33.382 158.352 33.736 158.772 34.108L159.978 35.17C160.614 35.71 161.148 36.322 161.58 37.006C162.024 37.69 162.246 38.536 162.246 39.544C162.246 40.228 162.09 40.852 161.778 41.416C161.466 41.968 161.022 42.406 160.446 42.73C159.882 43.054 159.21 43.216 158.43 43.216ZM164.455 39.292L163.609 28.456H166.525L165.463 39.292H164.455ZM163.555 43V40.264H166.327V43H163.555Z" fill="#151515"/>
<rect x="24" y="87" width="120" height="38" rx="19" fill="#232323"/>
<path d="M58.4753 101.172V107.864C58.4753 108.9 58.1813 109.698 57.5933 110.258C57.0146 110.818 56.2306 111.098 55.2413 111.098C54.2053 111.098 53.3746 110.804 52.7493 110.216C52.1239 109.628 51.8113 108.793 51.8113 107.71H54.1913C54.1913 108.121 54.2753 108.433 54.4433 108.648C54.6113 108.853 54.8539 108.956 55.1713 108.956C55.4606 108.956 55.6846 108.863 55.8433 108.676C56.0019 108.489 56.0813 108.219 56.0813 107.864V101.172H58.4753ZM63.965 111.112C63.1997 111.112 62.509 110.949 61.893 110.622C61.2863 110.295 60.8057 109.829 60.451 109.222C60.1057 108.615 59.933 107.906 59.933 107.094C59.933 106.291 60.1103 105.587 60.465 104.98C60.8197 104.364 61.305 103.893 61.921 103.566C62.537 103.239 63.2277 103.076 63.993 103.076C64.7583 103.076 65.449 103.239 66.065 103.566C66.681 103.893 67.1663 104.364 67.521 104.98C67.8757 105.587 68.053 106.291 68.053 107.094C68.053 107.897 67.871 108.606 67.507 109.222C67.1523 109.829 66.6623 110.295 66.037 110.622C65.421 110.949 64.7303 111.112 63.965 111.112ZM63.965 109.04C64.4223 109.04 64.8097 108.872 65.127 108.536C65.4537 108.2 65.617 107.719 65.617 107.094C65.617 106.469 65.4583 105.988 65.141 105.652C64.833 105.316 64.4503 105.148 63.993 105.148C63.5263 105.148 63.139 105.316 62.831 105.652C62.523 105.979 62.369 106.459 62.369 107.094C62.369 107.719 62.5183 108.2 62.817 108.536C63.125 108.872 63.5077 109.04 63.965 109.04ZM70.5271 102.376C70.1071 102.376 69.7617 102.255 69.4911 102.012C69.2297 101.76 69.0991 101.452 69.0991 101.088C69.0991 100.715 69.2297 100.407 69.4911 100.164C69.7617 99.912 70.1071 99.786 70.5271 99.786C70.9377 99.786 71.2737 99.912 71.5351 100.164C71.8057 100.407 71.9411 100.715 71.9411 101.088C71.9411 101.452 71.8057 101.76 71.5351 102.012C71.2737 102.255 70.9377 102.376 70.5271 102.376ZM71.7171 103.188V111H69.3231V103.188H71.7171ZM78.212 103.104C79.1267 103.104 79.8547 103.403 80.396 104C80.9467 104.588 81.222 105.4 81.222 106.436V111H78.842V106.758C78.842 106.235 78.7067 105.829 78.436 105.54C78.1653 105.251 77.8013 105.106 77.344 105.106C76.8867 105.106 76.5227 105.251 76.252 105.54C75.9813 105.829 75.846 106.235 75.846 106.758V111H73.452V103.188H75.846V104.224C76.0887 103.879 76.4153 103.608 76.826 103.412C77.2367 103.207 77.6987 103.104 78.212 103.104ZM94.6444 111H92.2504L88.2464 104.938V111H85.8524V101.172H88.2464L92.2504 107.262V101.172H94.6444V111ZM99.9357 111.112C99.1704 111.112 98.4797 110.949 97.8637 110.622C97.2571 110.295 96.7764 109.829 96.4217 109.222C96.0764 108.615 95.9037 107.906 95.9037 107.094C95.9037 106.291 96.0811 105.587 96.4357 104.98C96.7904 104.364 97.2757 103.893 97.8917 103.566C98.5077 103.239 99.1984 103.076 99.9637 103.076C100.729 103.076 101.42 103.239 102.036 103.566C102.652 103.893 103.137 104.364 103.492 104.98C103.846 105.587 104.024 106.291 104.024 107.094C104.024 107.897 103.842 108.606 103.478 109.222C103.123 109.829 102.633 110.295 102.008 110.622C101.392 110.949 100.701 111.112 99.9357 111.112ZM99.9357 109.04C100.393 109.04 100.78 108.872 101.098 108.536C101.424 108.2 101.588 107.719 101.588 107.094C101.588 106.469 101.429 105.988 101.112 105.652C100.804 105.316 100.421 105.148 99.9637 105.148C99.4971 105.148 99.1097 105.316 98.8017 105.652C98.4937 105.979 98.3397 106.459 98.3397 107.094C98.3397 107.719 98.4891 108.2 98.7877 108.536C99.0957 108.872 99.4784 109.04 99.9357 109.04ZM116.508 103.188L114.394 111H111.748L110.516 105.932L109.242 111H106.61L104.482 103.188H106.876L107.982 108.774L109.298 103.188H111.832L113.162 108.746L114.254 103.188H116.508Z" fill="white"/>
<defs>
<clipPath id="clip0_58_341">
<rect width="155" height="133" fill="white" transform="translate(174 4)"/>
</clipPath>
</defs>
</svg>
